<svg width="50" height="52" viewBox="0 0 50 52" fill="none" xmlns="http://www.w3.org/2000/svg">
<path d="M33.6808 0.713252C33.6996 0.786143 33.6842 0.847815 33.6312 0.860898C33.4983 0.893606 33.364 0.923509 33.2291 0.93005C32.9358 0.943133 32.6418 0.940332 32.372 0.94407C32.3002 1.0179 32.3083 1.06555 32.3747 1.08331C32.4411 1.10107 32.5096 1.1048 32.5774 1.1048C35.0964 1.11695 37.616 1.12443 40.1349 1.14218C40.4061 1.14405 40.6773 1.19171 40.9471 1.2375C41.2639 1.29077 41.5787 1.31974 41.8961 1.23844C42.029 1.2048 42.168 1.16835 42.3008 1.1861C43.5003 1.34684 44.7024 1.3132 45.9038 1.31787C46.0373 1.3188 46.1709 1.35618 46.3038 1.38328C46.3139 1.38515 46.3266 1.43468 46.326 1.46085C46.3253 1.48795 46.3145 1.53 46.2998 1.53747C46.2172 1.5814 46.1313 1.65616 46.0488 1.64962C45.7998 1.63 45.5541 1.59635 45.3091 1.71035C45.2272 1.74867 45.1292 1.72064 45.0386 1.71971C44.358 1.71784 43.6775 1.71316 42.9969 1.7141C41.9982 1.71503 41.0001 1.7197 40.0014 1.72157C39.6611 1.7225 39.3222 1.73559 38.9832 1.80101C38.7369 1.84867 38.4858 1.85334 38.2368 1.85614C36.4669 1.87577 34.6963 1.88605 32.9264 1.90661C32.3828 1.91315 31.8398 1.92062 31.2954 1.99538C30.7558 2.07014 30.2088 2.05145 29.6651 2.05519C27.0777 2.06921 24.4903 2.07201 21.9035 2.0879C20.8142 2.09444 19.7249 2.13182 18.6355 2.13649C17.5006 2.14023 16.3663 2.11593 15.2313 2.11313C13.6426 2.10939 12.0539 2.11032 10.4652 2.11873C10.1712 2.1206 9.87725 2.16452 9.5826 2.19069C9.35641 2.21031 9.13023 2.24396 8.90404 2.25143C8.38253 2.26919 7.86034 2.27199 7.33816 2.28694C7.08848 2.29442 6.83612 2.28414 6.59047 2.33461C6.00452 2.45609 5.41455 2.4617 4.82525 2.48786C4.55342 2.50001 4.28292 2.543 4.01109 2.57291C3.31037 2.6514 2.61704 2.82335 1.91364 2.87007C1.73309 2.88222 1.5539 2.94297 1.37335 2.95605C1.0344 2.98128 0.694096 3.0009 0.354477 2.99997C0.159162 2.99997 0.0282813 2.78597 0.0195559 2.50095C0.0108305 2.21873 0.00545838 1.93557 8.88981e-05 1.65335C-0.00259584 1.51131 0.0558012 1.40478 0.138357 1.35151C0.260513 1.27395 0.389377 1.20106 0.520929 1.17209C0.699464 1.13284 0.882704 1.14125 1.06392 1.11976C1.38005 1.08331 1.69617 1.04219 2.0123 0.999202C2.12506 0.98425 2.23715 0.952478 2.34991 0.941264C3.2097 0.856225 4.0668 0.731942 4.92257 0.596439C5.23735 0.546911 5.55683 0.556249 5.8743 0.543166C6.4636 0.519804 7.05425 0.533827 7.63952 0.397391C7.81738 0.356273 8.0013 0.367483 8.18319 0.359073C8.93089 0.3273 9.67858 0.323566 10.4263 0.22264C11.0572 0.1376 11.6962 0.148811 12.3311 0.148811C14.6917 0.147876 17.0515 0.162833 19.4121 0.165637C22.2713 0.169375 25.1313 0.1703 27.9905 0.168431C28.9208 0.167497 29.8517 0.158162 30.782 0.14321C31.0538 0.138537 31.325 0.101153 31.5968 0.080594C31.7096 0.0721835 31.823 0.0562929 31.9357 0.0647034C32.2297 0.0852624 32.5237 0.137598 32.817 0.138532C33.0868 0.139467 33.3566 0.088065 33.6265 0.063768C33.6426 0.061899 33.6768 0.103958 33.6741 0.117041C33.6654 0.168438 33.654 0.247873 33.6291 0.260022C33.5452 0.30114 33.4553 0.335715 33.3667 0.340387C33.0949 0.356274 32.8224 0.353463 32.5499 0.36748C32.4613 0.372153 32.3707 0.395521 32.2861 0.431967C32.2613 0.442246 32.2485 0.526348 32.2411 0.580549C32.2385 0.599239 32.266 0.643158 32.2834 0.648765C32.3707 0.674931 32.466 0.730065 32.5472 0.705768C32.9291 0.593628 33.3056 0.647837 33.6808 0.713252ZM31.3162 0.63008C31.2995 0.613259 31.2827 0.582419 31.2659 0.581484C30.8827 0.571205 30.4994 0.562796 30.1155 0.559992C30.0296 0.559058 29.943 0.581485 29.849 0.594568C29.9054 0.77773 30.0088 0.734737 30.0893 0.740344C30.2739 0.751558 30.4464 0.765581 30.5652 1.01416C30.5907 1.06742 30.6988 1.09079 30.7504 1.06275C30.939 0.961828 31.1203 0.834737 31.3021 0.713252C31.3136 0.704841 31.3115 0.658115 31.3162 0.63008ZM27.5952 0.602976C27.5415 0.602976 27.4972 0.59924 27.4529 0.604847C27.4328 0.60765 27.4019 0.619798 27.3959 0.639423C27.3777 0.698296 27.4059 0.731939 27.465 0.745957C27.5308 0.760909 27.5952 0.788009 27.6603 0.803895C27.7167 0.817913 27.7509 0.784274 27.7496 0.714187C27.7489 0.68989 27.7301 0.655315 27.714 0.64597C27.6724 0.624477 27.6288 0.61419 27.5952 0.602976Z" fill="white"/>
<path d="M37.0488 0.000233169C37.6153 0.000233169 38.1818 -0.000700418 38.7483 0.00116858C38.9751 0.00210308 39.2033 -0.00257489 39.4147 0.135731C39.4476 0.157224 39.4644 0.228246 39.4886 0.275906C39.4698 0.292727 39.451 0.324502 39.4315 0.325437C39.0469 0.340389 38.6623 0.36095 38.2771 0.362819C37.2797 0.367492 36.283 0.365621 35.2856 0.360948C35.152 0.360014 35.0178 0.329179 34.8842 0.305816C34.8661 0.303013 34.8339 0.261895 34.8366 0.247878C34.8453 0.192742 34.8587 0.103028 34.8836 0.0936831C34.9903 0.0516306 35.1017 0.0114458 35.2118 0.0105113C35.8239 0.0030353 36.4354 0.00676964 37.0475 0.00676964C37.0488 0.00396615 37.0488 0.00210217 37.0488 0.000233169Z" fill="white"/>
<path d="M48.4999 1.42534C48.5348 1.45898 48.5838 1.48234 48.5999 1.52813C48.616 1.57392 48.6133 1.6571 48.5919 1.69728C48.5214 1.83092 48.4187 1.8683 48.3019 1.80195C48.2737 1.78606 48.2422 1.69634 48.2502 1.65522C48.2831 1.49449 48.3771 1.41693 48.4999 1.42534Z" fill="white"/>
<path d="M49.8416 1.67298C49.7913 1.65896 49.7268 1.64775 49.6664 1.62064C49.6174 1.59822 49.604 1.54028 49.6295 1.48515C49.6389 1.46459 49.6658 1.44683 49.6832 1.4487C49.747 1.45524 49.8114 1.46646 49.8738 1.48421C49.9752 1.51318 50.0349 1.60382 49.9778 1.62999C49.9382 1.64868 49.896 1.65616 49.8416 1.67298Z" fill="white"/>
<path d="M40.4913 0.0927384C40.5551 0.0843279 40.6121 0.0618949 40.6645 0.0759124C40.6866 0.0815194 40.7222 0.177773 40.7122 0.204874C40.6793 0.292717 40.6121 0.302065 40.5558 0.25534C40.5282 0.231978 40.5188 0.165629 40.4913 0.0927384Z" fill="white"/>
<path d="M47.5381 1.69541C47.5146 1.64588 47.481 1.60102 47.471 1.54682C47.4623 1.50009 47.4676 1.43 47.4884 1.39449C47.5233 1.33469 47.6287 1.36272 47.6522 1.44122C47.6656 1.48421 47.6582 1.55803 47.6381 1.59541C47.6153 1.6384 47.5683 1.65802 47.532 1.68699L47.5381 1.69541Z" fill="white"/>
<path d="M36.3555 0.694557C36.3864 0.636618 36.4253 0.622608 36.4629 0.666529C36.475 0.680547 36.4824 0.727268 36.4743 0.745024C36.4474 0.807635 36.4065 0.818856 36.3689 0.774934C36.3568 0.760917 36.3595 0.721658 36.3555 0.694557Z" fill="white"/>
<path d="M48.5033 0.324493C48.4831 0.319821 48.4509 0.323565 48.4442 0.307678C48.418 0.243198 48.4408 0.207684 48.5019 0.222636C48.5194 0.226374 48.5335 0.255346 48.5489 0.272167C48.5335 0.288988 48.5187 0.306738 48.5033 0.324493Z" fill="white"/>
<path d="M45.3011 0.290856L45.2588 0.2703L45.293 0.238519L45.3011 0.290856Z" fill="white"/>
<path d="M49.2349 0.308606L49.2107 0.255345L49.2597 0.25628L49.2349 0.308606Z" fill="white"/>
<path d="M38.5892 0.644099L38.6328 0.625403L38.6268 0.675869L38.5892 0.644099Z" fill="white"/>
<path d="M2.28675 35.6808C2.21386 35.6996 2.15218 35.6842 2.1391 35.6312C2.10639 35.4983 2.07649 35.364 2.06995 35.2291C2.05687 34.9358 2.05967 34.6418 2.05593 34.372C1.9821 34.3002 1.93445 34.3083 1.91669 34.3747C1.89893 34.4411 1.8952 34.5096 1.8952 34.5774C1.88305 37.0964 1.87557 39.616 1.85782 42.1349C1.85595 42.4061 1.80829 42.6773 1.7625 42.9471C1.70923 43.2639 1.68026 43.5787 1.76156 43.8961C1.7952 44.029 1.83165 44.168 1.8139 44.3008C1.65316 45.5003 1.6868 46.7024 1.68213 47.9038C1.6812 48.0373 1.64382 48.1709 1.61672 48.3038C1.61485 48.3139 1.56532 48.3266 1.53915 48.326C1.51205 48.3253 1.47 48.3145 1.46253 48.2998C1.4186 48.2172 1.34384 48.1313 1.35038 48.0488C1.37 47.7998 1.40365 47.5541 1.28965 47.3091C1.25133 47.2272 1.27936 47.1292 1.28029 47.0386C1.28216 46.358 1.28684 45.6775 1.2859 44.9969C1.28497 43.9982 1.2803 43.0001 1.27843 42.0014C1.2775 41.6611 1.26441 41.3222 1.19899 40.9832C1.15133 40.7369 1.14666 40.4858 1.14386 40.2368C1.12423 38.4669 1.11395 36.6963 1.09339 34.9264C1.08685 34.3828 1.07938 33.8398 1.00462 33.2954C0.929858 32.7558 0.948547 32.2088 0.944809 31.6651C0.930792 29.0777 0.92799 26.4903 0.912104 23.9035C0.905562 22.8142 0.868181 21.7249 0.863508 20.6355C0.85977 19.5006 0.884067 18.3663 0.886871 17.2313C0.890609 15.6426 0.88968 14.0539 0.88127 12.4652C0.8794 12.1712 0.835477 11.8772 0.809311 11.5826C0.789687 11.3564 0.756043 11.1302 0.748567 10.904C0.730811 10.3825 0.728007 9.86034 0.713055 9.33816C0.705579 9.08848 0.715858 8.83612 0.665395 8.59047C0.54391 8.00452 0.538302 7.41455 0.512136 6.82525C0.499987 6.55342 0.456997 6.28292 0.427093 6.01109C0.348595 5.31037 0.176654 4.61704 0.129929 3.91364C0.11778 3.73309 0.0570338 3.5539 0.0439508 3.37335C0.0187192 3.0344 -0.000902414 2.6941 3.19481e-05 2.35448C3.19481e-05 2.15916 0.214029 2.02828 0.499051 2.01956C0.78127 2.01083 1.06443 2.00546 1.34665 2.00009C1.48869 1.9974 1.59522 2.0558 1.64849 2.13836C1.72605 2.26051 1.79894 2.38938 1.82791 2.52093C1.86716 2.69946 1.85875 2.8827 1.88024 3.06392C1.91669 3.38005 1.95781 3.69617 2.0008 4.0123C2.01575 4.12506 2.04752 4.23715 2.05874 4.34991C2.14378 5.2097 2.26806 6.0668 2.40356 6.92257C2.45309 7.23735 2.44375 7.55683 2.45683 7.8743C2.4802 8.4636 2.46617 9.05425 2.60261 9.63952C2.64373 9.81738 2.63252 10.0013 2.64093 10.1832C2.6727 10.9309 2.67643 11.6786 2.77736 12.4263C2.8624 13.0572 2.85119 13.6962 2.85119 14.3311C2.85212 16.6917 2.83717 19.0515 2.83436 21.4121C2.83063 24.2713 2.8297 27.1313 2.83157 29.9905C2.8325 30.9208 2.84184 31.8517 2.85679 32.782C2.86146 33.0538 2.89885 33.325 2.91941 33.5968C2.92782 33.7096 2.94371 33.823 2.9353 33.9357C2.91474 34.2297 2.8624 34.5237 2.86147 34.817C2.86053 35.0868 2.91194 35.3566 2.93623 35.6265C2.9381 35.6426 2.89604 35.6768 2.88296 35.6741C2.83156 35.6654 2.75213 35.654 2.73998 35.6291C2.69886 35.5452 2.66429 35.4553 2.65961 35.3667C2.64373 35.0949 2.64654 34.8224 2.63252 34.5499C2.62785 34.4613 2.60448 34.3707 2.56803 34.2861C2.55775 34.2613 2.47365 34.2485 2.41945 34.2411C2.40076 34.2385 2.35684 34.266 2.35123 34.2834C2.32507 34.3707 2.26993 34.466 2.29423 34.5472C2.40637 34.9291 2.35216 35.3056 2.28675 35.6808ZM2.36992 33.3162C2.38674 33.2995 2.41758 33.2827 2.41852 33.2659C2.4288 32.8827 2.4372 32.4994 2.44001 32.1155C2.44094 32.0296 2.41851 31.943 2.40543 31.849C2.22227 31.9054 2.26526 32.0088 2.25966 32.0893C2.24844 32.2739 2.23442 32.4464 1.98584 32.5652C1.93258 32.5907 1.90921 32.6988 1.93725 32.7504C2.03817 32.939 2.16526 33.1203 2.28675 33.3021C2.29516 33.3136 2.34189 33.3115 2.36992 33.3162ZM2.39702 29.5952C2.39702 29.5415 2.40076 29.4972 2.39515 29.4529C2.39235 29.4328 2.3802 29.4019 2.36058 29.3959C2.3017 29.3777 2.26806 29.4059 2.25404 29.465C2.23909 29.5308 2.21199 29.5952 2.1961 29.6603C2.18209 29.7167 2.21573 29.7509 2.28581 29.7496C2.31011 29.7489 2.34468 29.7301 2.35403 29.714C2.37552 29.6724 2.38581 29.6288 2.39702 29.5952Z" fill="white"/>
<path d="M2.99977 39.0488C2.99977 39.6153 3.0007 40.1818 2.99883 40.7483C2.9979 40.9751 3.00257 41.2033 2.86427 41.4147C2.84278 41.4476 2.77175 41.4644 2.72409 41.4886C2.70727 41.4698 2.6755 41.451 2.67456 41.4315C2.65961 41.0469 2.63905 40.6623 2.63718 40.2771C2.63251 39.2797 2.63438 38.283 2.63905 37.2856C2.63999 37.152 2.67082 37.0178 2.69418 36.8842C2.69699 36.8661 2.7381 36.8339 2.75212 36.8366C2.80726 36.8453 2.89697 36.8587 2.90632 36.8836C2.94837 36.9903 2.98855 37.1017 2.98949 37.2118C2.99696 37.8239 2.99323 38.4354 2.99323 39.0475C2.99603 39.0488 2.9979 39.0488 2.99977 39.0488Z" fill="white"/>
<path d="M1.57466 50.4999C1.54102 50.5348 1.51766 50.5838 1.47187 50.5999C1.42608 50.616 1.3429 50.6133 1.30272 50.5919C1.16908 50.5214 1.1317 50.4187 1.19805 50.3019C1.21394 50.2737 1.30366 50.2422 1.34478 50.2502C1.50551 50.2831 1.58307 50.3771 1.57466 50.4999Z" fill="white"/>
<path d="M1.32702 51.8416C1.34104 51.7913 1.35225 51.7268 1.37936 51.6664C1.40178 51.6174 1.45972 51.604 1.51485 51.6295C1.53541 51.6389 1.55317 51.6658 1.5513 51.6832C1.54476 51.747 1.53354 51.8114 1.51579 51.8738C1.48682 51.9752 1.39618 52.0349 1.37001 51.9778C1.35132 51.9382 1.34384 51.896 1.32702 51.8416Z" fill="white"/>
<path d="M2.90726 42.4913C2.91567 42.5551 2.93811 42.6121 2.92409 42.6645C2.91848 42.6866 2.82223 42.7222 2.79513 42.7122C2.70728 42.6793 2.69793 42.6121 2.74466 42.5558C2.76802 42.5282 2.83437 42.5188 2.90726 42.4913Z" fill="white"/>
<path d="M1.30459 49.5381C1.35412 49.5146 1.39898 49.481 1.45318 49.471C1.49991 49.4623 1.57 49.4676 1.60551 49.4884C1.66531 49.5233 1.63728 49.6287 1.55878 49.6522C1.51579 49.6656 1.44197 49.6582 1.40459 49.6381C1.3616 49.6153 1.34198 49.5683 1.31301 49.532L1.30459 49.5381Z" fill="white"/>
<path d="M2.30544 38.3555C2.36338 38.3864 2.37739 38.4253 2.33347 38.4629C2.31945 38.475 2.27273 38.4824 2.25498 38.4743C2.19236 38.4474 2.18114 38.4065 2.22507 38.3689C2.23908 38.3568 2.27834 38.3595 2.30544 38.3555Z" fill="white"/>
<path d="M2.67551 50.5033C2.68018 50.4831 2.67644 50.4509 2.69232 50.4442C2.7568 50.418 2.79232 50.4408 2.77736 50.5019C2.77363 50.5194 2.74465 50.5335 2.72783 50.5489C2.71101 50.5335 2.69326 50.5187 2.67551 50.5033Z" fill="white"/>
<path d="M2.70914 47.3011L2.7297 47.2588L2.76148 47.293L2.70914 47.3011Z" fill="white"/>
<path d="M2.69139 51.2349L2.74466 51.2107L2.74372 51.2597L2.69139 51.2349Z" fill="white"/>
<path d="M2.3559 40.5892L2.3746 40.6328L2.32413 40.6268L2.3559 40.5892Z" fill="white"/>
</svg>
