<svg width="290" height="240" viewBox="0 0 290 240" fill="none" xmlns="http://www.w3.org/2000/svg">
<path d="M33.6808 0.713252C33.6996 0.786143 33.6842 0.847815 33.6312 0.860898C33.4983 0.893606 33.364 0.923509 33.2291 0.93005C32.9358 0.943133 32.6418 0.940332 32.372 0.94407C32.3002 1.0179 32.3083 1.06555 32.3747 1.08331C32.4411 1.10107 32.5096 1.1048 32.5774 1.1048C35.0964 1.11695 37.616 1.12443 40.1349 1.14218C40.4061 1.14405 40.6773 1.19171 40.9471 1.2375C41.2639 1.29077 41.5787 1.31974 41.8961 1.23844C42.029 1.2048 42.168 1.16835 42.3008 1.1861C43.5003 1.34684 44.7024 1.3132 45.9038 1.31787C46.0373 1.3188 46.1709 1.35618 46.3038 1.38328C46.3139 1.38515 46.3266 1.43468 46.326 1.46085C46.3253 1.48795 46.3145 1.53 46.2998 1.53747C46.2172 1.5814 46.1313 1.65616 46.0488 1.64962C45.7998 1.63 45.5541 1.59635 45.3091 1.71035C45.2272 1.74867 45.1292 1.72064 45.0386 1.71971C44.358 1.71784 43.6775 1.71316 42.9969 1.7141C41.9982 1.71503 41.0001 1.7197 40.0014 1.72157C39.6611 1.7225 39.3222 1.73559 38.9832 1.80101C38.7369 1.84867 38.4858 1.85334 38.2368 1.85614C36.4669 1.87577 34.6963 1.88605 32.9264 1.90661C32.3828 1.91315 31.8398 1.92062 31.2954 1.99538C30.7558 2.07014 30.2088 2.05145 29.6651 2.05519C27.0777 2.06921 24.4903 2.07201 21.9035 2.0879C20.8142 2.09444 19.7249 2.13182 18.6355 2.13649C17.5006 2.14023 16.3663 2.11593 15.2313 2.11313C13.6426 2.10939 12.0539 2.11032 10.4652 2.11873C10.1712 2.1206 9.87725 2.16452 9.5826 2.19069C9.35641 2.21031 9.13023 2.24396 8.90404 2.25143C8.38253 2.26919 7.86034 2.27199 7.33816 2.28694C7.08848 2.29442 6.83612 2.28414 6.59047 2.33461C6.00452 2.45609 5.41455 2.4617 4.82525 2.48786C4.55342 2.50001 4.28292 2.543 4.01109 2.57291C3.31037 2.6514 2.61704 2.82335 1.91364 2.87007C1.73309 2.88222 1.5539 2.94297 1.37335 2.95605C1.0344 2.98128 0.694096 3.0009 0.354477 2.99997C0.159162 2.99997 0.0282813 2.78597 0.0195559 2.50095C0.0108305 2.21873 0.00545838 1.93557 8.88981e-05 1.65335C-0.00259584 1.51131 0.0558012 1.40478 0.138357 1.35151C0.260513 1.27395 0.389377 1.20106 0.520929 1.17209C0.699464 1.13284 0.882704 1.14125 1.06392 1.11976C1.38005 1.08331 1.69617 1.04219 2.0123 0.999202C2.12506 0.98425 2.23715 0.952478 2.34991 0.941264C3.2097 0.856225 4.0668 0.731942 4.92257 0.596439C5.23735 0.546911 5.55683 0.556249 5.8743 0.543166C6.4636 0.519804 7.05425 0.533827 7.63952 0.397391C7.81738 0.356273 8.0013 0.367483 8.18319 0.359073C8.93089 0.3273 9.67858 0.323566 10.4263 0.22264C11.0572 0.1376 11.6962 0.148811 12.3311 0.148811C14.6917 0.147876 17.0515 0.162833 19.4121 0.165637C22.2713 0.169375 25.1313 0.1703 27.9905 0.168431C28.9208 0.167497 29.8517 0.158162 30.782 0.14321C31.0538 0.138537 31.325 0.101153 31.5968 0.080594C31.7096 0.0721835 31.823 0.0562929 31.9357 0.0647034C32.2297 0.0852624 32.5237 0.137598 32.817 0.138532C33.0868 0.139467 33.3566 0.088065 33.6265 0.063768C33.6426 0.061899 33.6768 0.103958 33.6741 0.117041C33.6654 0.168438 33.654 0.247873 33.6291 0.260022C33.5452 0.30114 33.4553 0.335715 33.3667 0.340387C33.0949 0.356274 32.8224 0.353463 32.5499 0.36748C32.4613 0.372153 32.3707 0.395521 32.2861 0.431967C32.2613 0.442246 32.2485 0.526348 32.2411 0.580549C32.2385 0.599239 32.266 0.643158 32.2834 0.648765C32.3707 0.674931 32.466 0.730065 32.5472 0.705768C32.9291 0.593628 33.3056 0.647837 33.6808 0.713252ZM31.3162 0.63008C31.2995 0.613259 31.2827 0.582419 31.2659 0.581484C30.8827 0.571205 30.4994 0.562796 30.1155 0.559992C30.0296 0.559058 29.943 0.581485 29.849 0.594568C29.9054 0.77773 30.0088 0.734737 30.0893 0.740344C30.2739 0.751558 30.4464 0.765581 30.5652 1.01416C30.5907 1.06742 30.6988 1.09079 30.7504 1.06275C30.939 0.961828 31.1203 0.834737 31.3021 0.713252C31.3136 0.704841 31.3115 0.658115 31.3162 0.63008ZM27.5952 0.602976C27.5415 0.602976 27.4972 0.59924 27.4529 0.604847C27.4328 0.60765 27.4019 0.619798 27.3959 0.639423C27.3777 0.698296 27.4059 0.731939 27.465 0.745957C27.5308 0.760909 27.5952 0.788009 27.6603 0.803895C27.7167 0.817913 27.7509 0.784274 27.7496 0.714187C27.7489 0.68989 27.7301 0.655315 27.714 0.64597C27.6724 0.624477 27.6288 0.61419 27.5952 0.602976Z" fill="#32302C"/>
<path d="M37.0488 0.000233169C37.6153 0.000233169 38.1818 -0.000700418 38.7483 0.00116858C38.9751 0.00210308 39.2033 -0.00257489 39.4147 0.135731C39.4476 0.157224 39.4644 0.228246 39.4886 0.275906C39.4698 0.292727 39.451 0.324502 39.4315 0.325437C39.0469 0.340389 38.6623 0.36095 38.2771 0.362819C37.2797 0.367492 36.283 0.365621 35.2856 0.360948C35.152 0.360014 35.0178 0.329179 34.8842 0.305816C34.8661 0.303013 34.8339 0.261895 34.8366 0.247878C34.8453 0.192742 34.8587 0.103028 34.8836 0.0936831C34.9903 0.0516306 35.1017 0.0114458 35.2118 0.0105113C35.8239 0.0030353 36.4354 0.00676964 37.0475 0.00676964C37.0488 0.00396615 37.0488 0.00210217 37.0488 0.000233169Z" fill="#32302C"/>
<path d="M48.4999 1.42534C48.5348 1.45898 48.5838 1.48234 48.5999 1.52813C48.616 1.57392 48.6133 1.6571 48.5919 1.69728C48.5214 1.83092 48.4187 1.8683 48.3019 1.80195C48.2737 1.78606 48.2422 1.69634 48.2502 1.65522C48.2831 1.49449 48.3771 1.41693 48.4999 1.42534Z" fill="#32302C"/>
<path d="M49.8416 1.67298C49.7913 1.65896 49.7268 1.64775 49.6664 1.62064C49.6174 1.59822 49.604 1.54028 49.6295 1.48515C49.6389 1.46459 49.6658 1.44683 49.6832 1.4487C49.747 1.45524 49.8114 1.46646 49.8738 1.48421C49.9752 1.51318 50.0349 1.60382 49.9778 1.62999C49.9382 1.64868 49.896 1.65616 49.8416 1.67298Z" fill="#32302C"/>
<path d="M40.4913 0.0927384C40.5551 0.0843279 40.6121 0.0618949 40.6645 0.0759124C40.6866 0.0815194 40.7222 0.177773 40.7122 0.204874C40.6793 0.292717 40.6121 0.302065 40.5558 0.25534C40.5282 0.231978 40.5188 0.165629 40.4913 0.0927384Z" fill="#32302C"/>
<path d="M47.5381 1.69541C47.5146 1.64588 47.481 1.60102 47.471 1.54682C47.4623 1.50009 47.4676 1.43 47.4884 1.39449C47.5233 1.33469 47.6287 1.36272 47.6522 1.44122C47.6656 1.48421 47.6582 1.55803 47.6381 1.59541C47.6153 1.6384 47.5683 1.65802 47.532 1.68699L47.5381 1.69541Z" fill="#32302C"/>
<path d="M36.3555 0.694557C36.3864 0.636618 36.4253 0.622608 36.4629 0.666529C36.475 0.680547 36.4824 0.727268 36.4743 0.745024C36.4474 0.807635 36.4065 0.818856 36.3689 0.774934C36.3568 0.760917 36.3595 0.721658 36.3555 0.694557Z" fill="#32302C"/>
<path d="M48.5033 0.324493C48.4831 0.319821 48.4509 0.323565 48.4442 0.307678C48.418 0.243198 48.4408 0.207684 48.5019 0.222636C48.5194 0.226374 48.5335 0.255346 48.5489 0.272167C48.5335 0.288988 48.5187 0.306738 48.5033 0.324493Z" fill="#32302C"/>
<path d="M45.3011 0.290856L45.2588 0.2703L45.293 0.238519L45.3011 0.290856Z" fill="#32302C"/>
<path d="M49.2349 0.308606L49.2107 0.255345L49.2597 0.25628L49.2349 0.308606Z" fill="#32302C"/>
<path d="M38.5892 0.644099L38.6328 0.625403L38.6268 0.675869L38.5892 0.644099Z" fill="#32302C"/>
<path d="M2.28675 35.6808C2.21386 35.6996 2.15218 35.6842 2.1391 35.6312C2.10639 35.4983 2.07649 35.364 2.06995 35.2291C2.05687 34.9358 2.05967 34.6418 2.05593 34.372C1.9821 34.3002 1.93445 34.3083 1.91669 34.3747C1.89893 34.4411 1.8952 34.5096 1.8952 34.5774C1.88305 37.0964 1.87557 39.616 1.85782 42.1349C1.85595 42.4061 1.80829 42.6773 1.7625 42.9471C1.70923 43.2639 1.68026 43.5787 1.76156 43.8961C1.7952 44.029 1.83165 44.168 1.8139 44.3008C1.65316 45.5003 1.6868 46.7024 1.68213 47.9038C1.6812 48.0373 1.64382 48.1709 1.61672 48.3038C1.61485 48.3139 1.56532 48.3266 1.53915 48.326C1.51205 48.3253 1.47 48.3145 1.46253 48.2998C1.4186 48.2172 1.34384 48.1313 1.35038 48.0488C1.37 47.7998 1.40365 47.5541 1.28965 47.3091C1.25133 47.2272 1.27936 47.1292 1.28029 47.0386C1.28216 46.358 1.28684 45.6775 1.2859 44.9969C1.28497 43.9982 1.2803 43.0001 1.27843 42.0014C1.2775 41.6611 1.26441 41.3222 1.19899 40.9832C1.15133 40.7369 1.14666 40.4858 1.14386 40.2368C1.12423 38.4669 1.11395 36.6963 1.09339 34.9264C1.08685 34.3828 1.07938 33.8398 1.00462 33.2954C0.929858 32.7558 0.948547 32.2088 0.944809 31.6651C0.930792 29.0777 0.92799 26.4903 0.912104 23.9035C0.905562 22.8142 0.868181 21.7249 0.863508 20.6355C0.85977 19.5006 0.884067 18.3663 0.886871 17.2313C0.890609 15.6426 0.88968 14.0539 0.88127 12.4652C0.8794 12.1712 0.835477 11.8772 0.809311 11.5826C0.789687 11.3564 0.756043 11.1302 0.748567 10.904C0.730811 10.3825 0.728007 9.86034 0.713055 9.33816C0.705579 9.08848 0.715858 8.83612 0.665395 8.59047C0.54391 8.00452 0.538302 7.41455 0.512136 6.82525C0.499987 6.55342 0.456997 6.28292 0.427093 6.01109C0.348595 5.31037 0.176654 4.61704 0.129929 3.91364C0.11778 3.73309 0.0570338 3.5539 0.0439508 3.37335C0.0187192 3.0344 -0.000902414 2.6941 3.19481e-05 2.35448C3.19481e-05 2.15916 0.214029 2.02828 0.499051 2.01956C0.78127 2.01083 1.06443 2.00546 1.34665 2.00009C1.48869 1.9974 1.59522 2.0558 1.64849 2.13836C1.72605 2.26051 1.79894 2.38938 1.82791 2.52093C1.86716 2.69946 1.85875 2.8827 1.88024 3.06392C1.91669 3.38005 1.95781 3.69617 2.0008 4.0123C2.01575 4.12506 2.04752 4.23715 2.05874 4.34991C2.14378 5.2097 2.26806 6.0668 2.40356 6.92257C2.45309 7.23735 2.44375 7.55683 2.45683 7.8743C2.4802 8.4636 2.46617 9.05425 2.60261 9.63952C2.64373 9.81738 2.63252 10.0013 2.64093 10.1832C2.6727 10.9309 2.67643 11.6786 2.77736 12.4263C2.8624 13.0572 2.85119 13.6962 2.85119 14.3311C2.85212 16.6917 2.83717 19.0515 2.83436 21.4121C2.83063 24.2713 2.8297 27.1313 2.83157 29.9905C2.8325 30.9208 2.84184 31.8517 2.85679 32.782C2.86146 33.0538 2.89885 33.325 2.91941 33.5968C2.92782 33.7096 2.94371 33.823 2.9353 33.9357C2.91474 34.2297 2.8624 34.5237 2.86147 34.817C2.86053 35.0868 2.91194 35.3566 2.93623 35.6265C2.9381 35.6426 2.89604 35.6768 2.88296 35.6741C2.83156 35.6654 2.75213 35.654 2.73998 35.6291C2.69886 35.5452 2.66429 35.4553 2.65961 35.3667C2.64373 35.0949 2.64654 34.8224 2.63252 34.5499C2.62785 34.4613 2.60448 34.3707 2.56803 34.2861C2.55775 34.2613 2.47365 34.2485 2.41945 34.2411C2.40076 34.2385 2.35684 34.266 2.35123 34.2834C2.32507 34.3707 2.26993 34.466 2.29423 34.5472C2.40637 34.9291 2.35216 35.3056 2.28675 35.6808ZM2.36992 33.3162C2.38674 33.2995 2.41758 33.2827 2.41852 33.2659C2.4288 32.8827 2.4372 32.4994 2.44001 32.1155C2.44094 32.0296 2.41851 31.943 2.40543 31.849C2.22227 31.9054 2.26526 32.0088 2.25966 32.0893C2.24844 32.2739 2.23442 32.4464 1.98584 32.5652C1.93258 32.5907 1.90921 32.6988 1.93725 32.7504C2.03817 32.939 2.16526 33.1203 2.28675 33.3021C2.29516 33.3136 2.34189 33.3115 2.36992 33.3162ZM2.39702 29.5952C2.39702 29.5415 2.40076 29.4972 2.39515 29.4529C2.39235 29.4328 2.3802 29.4019 2.36058 29.3959C2.3017 29.3777 2.26806 29.4059 2.25404 29.465C2.23909 29.5308 2.21199 29.5952 2.1961 29.6603C2.18209 29.7167 2.21573 29.7509 2.28581 29.7496C2.31011 29.7489 2.34468 29.7301 2.35403 29.714C2.37552 29.6724 2.38581 29.6288 2.39702 29.5952Z" fill="#32302C"/>
<path d="M2.99977 39.0488C2.99977 39.6153 3.0007 40.1818 2.99883 40.7483C2.9979 40.9751 3.00257 41.2033 2.86427 41.4147C2.84278 41.4476 2.77175 41.4644 2.72409 41.4886C2.70727 41.4698 2.6755 41.451 2.67456 41.4315C2.65961 41.0469 2.63905 40.6623 2.63718 40.2771C2.63251 39.2797 2.63438 38.283 2.63905 37.2856C2.63999 37.152 2.67082 37.0178 2.69418 36.8842C2.69699 36.8661 2.7381 36.8339 2.75212 36.8366C2.80726 36.8453 2.89697 36.8587 2.90632 36.8836C2.94837 36.9903 2.98855 37.1017 2.98949 37.2118C2.99696 37.8239 2.99323 38.4354 2.99323 39.0475C2.99603 39.0488 2.9979 39.0488 2.99977 39.0488Z" fill="#32302C"/>
<path d="M1.57466 50.4999C1.54102 50.5348 1.51766 50.5838 1.47187 50.5999C1.42608 50.616 1.3429 50.6133 1.30272 50.5919C1.16908 50.5214 1.1317 50.4187 1.19805 50.3019C1.21394 50.2737 1.30366 50.2422 1.34478 50.2502C1.50551 50.2831 1.58307 50.3771 1.57466 50.4999Z" fill="#32302C"/>
<path d="M1.32702 51.8416C1.34104 51.7913 1.35225 51.7268 1.37936 51.6664C1.40178 51.6174 1.45972 51.604 1.51485 51.6295C1.53541 51.6389 1.55317 51.6658 1.5513 51.6832C1.54476 51.747 1.53354 51.8114 1.51579 51.8738C1.48682 51.9752 1.39618 52.0349 1.37001 51.9778C1.35132 51.9382 1.34384 51.896 1.32702 51.8416Z" fill="#32302C"/>
<path d="M2.90726 42.4913C2.91567 42.5551 2.93811 42.6121 2.92409 42.6645C2.91848 42.6866 2.82223 42.7222 2.79513 42.7122C2.70728 42.6793 2.69793 42.6121 2.74466 42.5558C2.76802 42.5282 2.83437 42.5188 2.90726 42.4913Z" fill="#32302C"/>
<path d="M1.30459 49.5381C1.35412 49.5146 1.39898 49.481 1.45318 49.471C1.49991 49.4623 1.57 49.4676 1.60551 49.4884C1.66531 49.5233 1.63728 49.6287 1.55878 49.6522C1.51579 49.6656 1.44197 49.6582 1.40459 49.6381C1.3616 49.6153 1.34198 49.5683 1.31301 49.532L1.30459 49.5381Z" fill="#32302C"/>
<path d="M2.30544 38.3555C2.36338 38.3864 2.37739 38.4253 2.33347 38.4629C2.31945 38.475 2.27273 38.4824 2.25498 38.4743C2.19236 38.4474 2.18114 38.4065 2.22507 38.3689C2.23908 38.3568 2.27834 38.3595 2.30544 38.3555Z" fill="#32302C"/>
<path d="M2.67551 50.5033C2.68018 50.4831 2.67644 50.4509 2.69232 50.4442C2.7568 50.418 2.79232 50.4408 2.77736 50.5019C2.77363 50.5194 2.74465 50.5335 2.72783 50.5489C2.71101 50.5335 2.69326 50.5187 2.67551 50.5033Z" fill="#32302C"/>
<path d="M2.70914 47.3011L2.7297 47.2588L2.76148 47.293L2.70914 47.3011Z" fill="#32302C"/>
<path d="M2.69139 51.2349L2.74466 51.2107L2.74372 51.2597L2.69139 51.2349Z" fill="#32302C"/>
<path d="M2.3559 40.5892L2.3746 40.6328L2.32413 40.6268L2.3559 40.5892Z" fill="#32302C"/>
<path d="M256.319 239.287C256.3 239.214 256.316 239.152 256.369 239.139C256.502 239.106 256.636 239.076 256.771 239.07C257.064 239.057 257.358 239.06 257.628 239.056C257.7 238.982 257.692 238.934 257.625 238.917C257.559 238.899 257.49 238.895 257.423 238.895C254.904 238.883 252.384 238.876 249.865 238.858C249.594 238.856 249.323 238.808 249.053 238.762C248.736 238.709 248.421 238.68 248.104 238.762C247.971 238.795 247.832 238.832 247.699 238.814C246.5 238.653 245.298 238.687 244.096 238.682C243.963 238.681 243.829 238.644 243.696 238.617C243.686 238.615 243.673 238.565 243.674 238.539C243.675 238.512 243.685 238.47 243.7 238.463C243.783 238.419 243.869 238.344 243.951 238.35C244.2 238.37 244.446 238.404 244.691 238.29C244.773 238.251 244.871 238.279 244.961 238.28C245.642 238.282 246.323 238.287 247.003 238.286C248.002 238.285 249 238.28 249.999 238.278C250.339 238.277 250.678 238.264 251.017 238.199C251.263 238.151 251.514 238.147 251.763 238.144C253.533 238.124 255.304 238.114 257.074 238.093C257.617 238.087 258.16 238.079 258.705 238.005C259.244 237.93 259.791 237.949 260.335 237.945C262.922 237.931 265.51 237.928 268.096 237.912C269.186 237.906 270.275 237.868 271.364 237.864C272.499 237.86 273.634 237.884 274.769 237.887C276.357 237.891 277.946 237.89 279.535 237.881C279.829 237.879 280.123 237.835 280.417 237.809C280.644 237.79 280.87 237.756 281.096 237.749C281.617 237.731 282.14 237.728 282.662 237.713C282.912 237.706 283.164 237.716 283.41 237.665C283.995 237.544 284.585 237.538 285.175 237.512C285.447 237.5 285.717 237.457 285.989 237.427C286.69 237.349 287.383 237.177 288.086 237.13C288.267 237.118 288.446 237.057 288.627 237.044C288.966 237.019 289.306 236.999 289.646 237C289.841 237 289.972 237.214 289.98 237.499C289.989 237.781 289.995 238.064 290 238.347C290.003 238.489 289.944 238.595 289.862 238.648C289.739 238.726 289.611 238.799 289.479 238.828C289.301 238.867 289.117 238.859 288.936 238.88C288.62 238.917 288.304 238.958 287.988 239.001C287.875 239.016 287.763 239.048 287.65 239.059C286.79 239.144 285.933 239.268 285.077 239.404C284.763 239.453 284.443 239.444 284.126 239.457C283.536 239.48 282.946 239.466 282.36 239.603C282.183 239.644 281.999 239.633 281.817 239.641C281.069 239.673 280.321 239.676 279.574 239.777C278.943 239.862 278.304 239.851 277.669 239.851C275.308 239.852 272.948 239.837 270.588 239.834C267.729 239.831 264.869 239.83 262.009 239.832C261.079 239.833 260.148 239.842 259.218 239.857C258.946 239.861 258.675 239.899 258.403 239.919C258.29 239.928 258.177 239.944 258.064 239.935C257.77 239.915 257.476 239.862 257.183 239.861C256.913 239.861 256.643 239.912 256.374 239.936C256.357 239.938 256.323 239.896 256.326 239.883C256.335 239.832 256.346 239.752 256.371 239.74C256.455 239.699 256.545 239.664 256.633 239.66C256.905 239.644 257.178 239.647 257.45 239.633C257.539 239.628 257.629 239.604 257.714 239.568C257.739 239.558 257.751 239.474 257.759 239.419C257.762 239.401 257.734 239.357 257.717 239.351C257.629 239.325 257.534 239.27 257.453 239.294C257.071 239.406 256.694 239.352 256.319 239.287ZM258.684 239.37C258.701 239.387 258.717 239.418 258.734 239.419C259.117 239.429 259.501 239.437 259.885 239.44C259.97 239.441 260.057 239.419 260.151 239.405C260.095 239.222 259.991 239.265 259.911 239.26C259.726 239.248 259.554 239.234 259.435 238.986C259.409 238.933 259.301 238.909 259.25 238.937C259.061 239.038 258.88 239.165 258.698 239.287C258.686 239.295 258.688 239.342 258.684 239.37ZM262.405 239.397C262.458 239.397 262.503 239.401 262.547 239.395C262.567 239.392 262.598 239.38 262.604 239.361C262.622 239.302 262.594 239.268 262.535 239.254C262.469 239.239 262.405 239.212 262.34 239.196C262.283 239.182 262.249 239.216 262.25 239.286C262.251 239.31 262.27 239.345 262.286 239.354C262.328 239.376 262.371 239.386 262.405 239.397Z" fill="#32302C"/>
<path d="M252.951 240C252.385 240 251.818 240.001 251.252 239.999C251.025 239.998 250.797 240.003 250.585 239.864C250.552 239.843 250.536 239.772 250.511 239.724C250.53 239.707 250.549 239.675 250.568 239.675C250.953 239.66 251.338 239.639 251.723 239.637C252.72 239.633 253.717 239.634 254.714 239.639C254.848 239.64 254.982 239.671 255.116 239.694C255.134 239.697 255.166 239.738 255.163 239.752C255.155 239.807 255.141 239.897 255.116 239.906C255.01 239.948 254.898 239.989 254.788 239.989C254.176 239.997 253.565 239.993 252.953 239.993C252.951 239.996 252.951 239.998 252.951 240Z" fill="#32302C"/>
<path d="M241.5 238.575C241.465 238.541 241.416 238.518 241.4 238.472C241.384 238.426 241.387 238.343 241.408 238.303C241.479 238.169 241.581 238.132 241.698 238.198C241.726 238.214 241.758 238.304 241.75 238.345C241.717 238.506 241.623 238.583 241.5 238.575Z" fill="#32302C"/>
<path d="M240.158 238.327C240.209 238.341 240.273 238.352 240.334 238.379C240.383 238.402 240.396 238.46 240.37 238.515C240.361 238.535 240.334 238.553 240.317 238.551C240.253 238.545 240.189 238.534 240.126 238.516C240.025 238.487 239.965 238.396 240.022 238.37C240.062 238.351 240.104 238.344 240.158 238.327Z" fill="#32302C"/>
<path d="M249.509 239.907C249.445 239.916 249.388 239.938 249.335 239.924C249.313 239.918 249.278 239.822 249.288 239.795C249.321 239.707 249.388 239.698 249.444 239.745C249.472 239.768 249.481 239.834 249.509 239.907Z" fill="#32302C"/>
<path d="M242.462 238.305C242.485 238.354 242.519 238.399 242.529 238.453C242.538 238.5 242.532 238.57 242.512 238.606C242.477 238.665 242.371 238.637 242.348 238.559C242.334 238.516 242.342 238.442 242.362 238.405C242.385 238.362 242.432 238.342 242.468 238.313L242.462 238.305Z" fill="#32302C"/>
<path d="M253.645 239.305C253.614 239.363 253.575 239.377 253.537 239.333C253.525 239.319 253.518 239.273 253.526 239.255C253.553 239.192 253.593 239.181 253.631 239.225C253.643 239.239 253.64 239.278 253.645 239.305Z" fill="#32302C"/>
<path d="M241.497 239.676C241.517 239.68 241.549 239.676 241.556 239.692C241.582 239.757 241.559 239.792 241.498 239.777C241.481 239.774 241.467 239.745 241.451 239.728C241.467 239.711 241.481 239.693 241.497 239.676Z" fill="#32302C"/>
<path d="M244.699 239.709L244.741 239.73L244.707 239.761L244.699 239.709Z" fill="#32302C"/>
<path d="M240.765 239.691L240.789 239.745L240.74 239.744L240.765 239.691Z" fill="#32302C"/>
<path d="M251.411 239.356L251.367 239.375L251.373 239.324L251.411 239.356Z" fill="#32302C"/>
<path d="M287.713 204.319C287.786 204.3 287.848 204.316 287.861 204.369C287.894 204.502 287.924 204.636 287.93 204.771C287.943 205.064 287.94 205.358 287.944 205.628C288.018 205.7 288.066 205.692 288.083 205.625C288.101 205.559 288.105 205.49 288.105 205.423C288.117 202.904 288.124 200.384 288.142 197.865C288.144 197.594 288.192 197.323 288.238 197.053C288.291 196.736 288.32 196.421 288.238 196.104C288.205 195.971 288.168 195.832 288.186 195.699C288.347 194.5 288.313 193.298 288.318 192.096C288.319 191.963 288.356 191.829 288.383 191.696C288.385 191.686 288.435 191.673 288.461 191.674C288.488 191.675 288.53 191.685 288.537 191.7C288.581 191.783 288.656 191.869 288.65 191.951C288.63 192.2 288.596 192.446 288.71 192.691C288.749 192.773 288.721 192.871 288.72 192.961C288.718 193.642 288.713 194.323 288.714 195.003C288.715 196.002 288.72 197 288.722 197.999C288.723 198.339 288.736 198.678 288.801 199.017C288.849 199.263 288.853 199.514 288.856 199.763C288.876 201.533 288.886 203.304 288.907 205.074C288.913 205.617 288.921 206.16 288.995 206.705C289.07 207.244 289.051 207.791 289.055 208.335C289.069 210.922 289.072 213.51 289.088 216.096C289.094 217.186 289.132 218.275 289.136 219.364C289.14 220.499 289.116 221.634 289.113 222.769C289.109 224.357 289.11 225.946 289.119 227.535C289.121 227.829 289.165 228.123 289.191 228.417C289.21 228.644 289.244 228.87 289.251 229.096C289.269 229.617 289.272 230.14 289.287 230.662C289.294 230.912 289.284 231.164 289.335 231.41C289.456 231.995 289.462 232.585 289.488 233.175C289.5 233.447 289.543 233.717 289.573 233.989C289.651 234.69 289.823 235.383 289.87 236.086C289.882 236.267 289.943 236.446 289.956 236.627C289.981 236.966 290.001 237.306 290 237.646C290 237.841 289.786 237.972 289.501 237.98C289.219 237.989 288.936 237.995 288.653 238C288.511 238.003 288.405 237.944 288.352 237.862C288.274 237.739 288.201 237.611 288.172 237.479C288.133 237.301 288.141 237.117 288.12 236.936C288.083 236.62 288.042 236.304 287.999 235.988C287.984 235.875 287.952 235.763 287.941 235.65C287.856 234.79 287.732 233.933 287.596 233.077C287.547 232.763 287.556 232.443 287.543 232.126C287.52 231.536 287.534 230.946 287.397 230.36C287.356 230.183 287.367 229.999 287.359 229.817C287.327 229.069 287.324 228.321 287.223 227.574C287.138 226.943 287.149 226.304 287.149 225.669C287.148 223.308 287.163 220.948 287.166 218.588C287.169 215.729 287.17 212.869 287.168 210.009C287.167 209.079 287.158 208.148 287.143 207.218C287.139 206.946 287.101 206.675 287.081 206.403C287.072 206.29 287.056 206.177 287.065 206.064C287.085 205.77 287.138 205.476 287.139 205.183C287.139 204.913 287.088 204.643 287.064 204.374C287.062 204.357 287.104 204.323 287.117 204.326C287.168 204.335 287.248 204.346 287.26 204.371C287.301 204.455 287.336 204.545 287.34 204.633C287.356 204.905 287.353 205.178 287.367 205.45C287.372 205.539 287.396 205.629 287.432 205.714C287.442 205.739 287.526 205.751 287.581 205.759C287.599 205.762 287.643 205.734 287.649 205.717C287.675 205.629 287.73 205.534 287.706 205.453C287.594 205.071 287.648 204.694 287.713 204.319ZM287.63 206.684C287.613 206.701 287.582 206.717 287.581 206.734C287.571 207.117 287.563 207.501 287.56 207.885C287.559 207.97 287.581 208.057 287.595 208.151C287.778 208.095 287.735 207.991 287.74 207.911C287.752 207.726 287.766 207.554 288.014 207.435C288.067 207.409 288.091 207.301 288.063 207.25C287.962 207.061 287.835 206.88 287.713 206.698C287.705 206.686 287.658 206.688 287.63 206.684ZM287.603 210.405C287.603 210.458 287.599 210.503 287.605 210.547C287.608 210.567 287.62 210.598 287.639 210.604C287.698 210.622 287.732 210.594 287.746 210.535C287.761 210.469 287.788 210.405 287.804 210.34C287.818 210.283 287.784 210.249 287.714 210.25C287.69 210.251 287.655 210.27 287.646 210.286C287.624 210.328 287.614 210.371 287.603 210.405Z" fill="#32302C"/>
<path d="M287 200.951C287 200.385 286.999 199.818 287.001 199.252C287.002 199.025 286.997 198.797 287.136 198.585C287.157 198.552 287.228 198.536 287.276 198.511C287.293 198.53 287.325 198.549 287.325 198.568C287.34 198.953 287.361 199.338 287.363 199.723C287.367 200.72 287.366 201.717 287.361 202.714C287.36 202.848 287.329 202.982 287.306 203.116C287.303 203.134 287.262 203.166 287.248 203.163C287.193 203.155 287.103 203.141 287.094 203.116C287.052 203.01 287.011 202.898 287.011 202.788C287.003 202.176 287.007 201.565 287.007 200.953C287.004 200.951 287.002 200.951 287 200.951Z" fill="#32302C"/>
<path d="M288.425 189.5C288.459 189.465 288.482 189.416 288.528 189.4C288.574 189.384 288.657 189.387 288.697 189.408C288.831 189.479 288.868 189.581 288.802 189.698C288.786 189.726 288.696 189.758 288.655 189.75C288.494 189.717 288.417 189.623 288.425 189.5Z" fill="#32302C"/>
<path d="M288.673 188.158C288.659 188.209 288.648 188.273 288.621 188.334C288.598 188.383 288.54 188.396 288.485 188.37C288.465 188.361 288.447 188.334 288.449 188.317C288.455 188.253 288.466 188.189 288.484 188.126C288.513 188.025 288.604 187.965 288.63 188.022C288.649 188.062 288.656 188.104 288.673 188.158Z" fill="#32302C"/>
<path d="M287.093 197.509C287.084 197.445 287.062 197.388 287.076 197.335C287.082 197.313 287.178 197.278 287.205 197.288C287.293 197.321 287.302 197.388 287.255 197.444C287.232 197.472 287.166 197.481 287.093 197.509Z" fill="#32302C"/>
<path d="M288.695 190.462C288.646 190.485 288.601 190.519 288.547 190.529C288.5 190.538 288.43 190.532 288.394 190.512C288.335 190.477 288.363 190.371 288.441 190.348C288.484 190.334 288.558 190.342 288.595 190.362C288.638 190.385 288.658 190.432 288.687 190.468L288.695 190.462Z" fill="#32302C"/>
<path d="M287.695 201.645C287.637 201.614 287.623 201.575 287.667 201.537C287.681 201.525 287.727 201.518 287.745 201.526C287.808 201.553 287.819 201.593 287.775 201.631C287.761 201.643 287.722 201.64 287.695 201.645Z" fill="#32302C"/>
<path d="M287.324 189.497C287.32 189.517 287.324 189.549 287.308 189.556C287.243 189.582 287.208 189.559 287.223 189.498C287.226 189.481 287.255 189.467 287.272 189.451C287.289 189.467 287.307 189.481 287.324 189.497Z" fill="#32302C"/>
<path d="M287.291 192.699L287.27 192.741L287.239 192.707L287.291 192.699Z" fill="#32302C"/>
<path d="M287.309 188.765L287.255 188.789L287.256 188.74L287.309 188.765Z" fill="#32302C"/>
<path d="M287.644 199.411L287.625 199.367L287.676 199.373L287.644 199.411Z" fill="#32302C"/>
</svg>
