<svg width="275" height="3" viewBox="0 0 275 3" fill="none" xmlns="http://www.w3.org/2000/svg">
<path d="M269.119 2.24066C268.805 2.28503 268.49 2.32875 268.198 2.36981C266.877 2.42941 265.627 2.3645 264.366 2.3294C264.164 2.32411 264.074 2.3016 264.13 2.26981C264.149 2.25855 264.239 2.24993 264.306 2.24331C264.437 2.23073 264.572 2.22013 264.845 2.19629C263.464 2.16716 262.267 2.09365 260.972 2.09497C259.995 2.09563 259.063 2.14001 258.105 2.1506C257.225 2.16054 256.391 2.09233 255.481 2.1016C252.757 2.12941 250.025 2.13537 247.296 2.16384C243.038 2.20821 238.778 2.18636 234.52 2.18305C231.305 2.18107 228.094 2.16518 224.879 2.15392C224.478 2.15259 224.071 2.15192 223.678 2.14C223.038 2.12013 222.405 2.11683 221.761 2.1367C221.368 2.14928 220.96 2.1559 220.564 2.15325C217.349 2.13008 214.138 2.14994 210.923 2.14861C210.362 2.14861 209.782 2.15126 209.246 2.12742C208.049 2.07444 206.866 2.07709 205.657 2.10821C205.19 2.12013 204.924 2.06915 204.875 1.98372C204.845 1.93339 204.636 1.91153 204.377 1.90822C204.048 1.90424 203.689 1.91087 203.603 1.97775C203.468 2.07907 203.064 2.12278 202.566 2.12676C201.286 2.13669 199.999 2.14332 198.719 2.13604C195.908 2.12014 193.101 2.08636 190.291 2.0751C187.802 2.06517 185.313 2.07709 182.821 2.07908C181.455 2.0804 180.085 2.09497 178.737 2.04199C178.356 2.02676 177.952 2.01418 177.675 1.94597C177.858 1.88504 178.004 1.81882 178.236 1.76385C178.36 1.73405 178.629 1.70293 178.824 1.70492C182.918 1.73671 187.012 1.71419 191.106 1.71949C193.999 1.7228 196.889 1.73737 199.782 1.73737C203.075 1.73803 206.372 1.71883 209.666 1.72479C214.969 1.73406 220.272 1.70226 225.575 1.7261C229.43 1.74398 233.292 1.72147 237.147 1.71816C242.933 1.71353 248.719 1.70691 254.508 1.70625C257.001 1.70558 259.49 1.71817 261.982 1.72148C263.023 1.7228 264.063 1.71683 265.141 1.71419C265.077 1.68703 265.058 1.6665 265.017 1.66452C264.475 1.63935 263.928 1.61286 263.378 1.59498C262.588 1.56982 261.791 1.55392 261.002 1.52809C260.882 1.52412 260.732 1.49367 260.71 1.47181C260.691 1.45261 260.818 1.4142 260.916 1.41023C261.301 1.39367 261.705 1.38904 262.098 1.37712C262.315 1.3705 262.529 1.35791 262.974 1.33738C261.956 1.29235 261.148 1.31155 260.362 1.29036C260.13 1.2844 259.905 1.26651 259.692 1.2493C259.643 1.24532 259.609 1.22414 259.613 1.2109C259.617 1.19898 259.673 1.17779 259.718 1.17712C260.025 1.16984 260.347 1.15724 260.646 1.16519C261.537 1.18903 262.36 1.15989 263.281 1.10029C263.037 1.08241 262.914 1.06519 262.787 1.06519C260.137 1.06784 257.484 1.07117 254.834 1.07779C254.71 1.07779 254.576 1.10361 254.471 1.12149C254.344 1.14268 254.677 1.19169 254.95 1.18771C255.268 1.18308 255.586 1.17248 255.904 1.16983C256.14 1.16784 256.387 1.16982 256.615 1.17976C256.75 1.18572 256.874 1.20956 256.975 1.23009C257.109 1.25658 257.001 1.31818 256.795 1.34202C255.627 1.47579 254.336 1.542 252.966 1.58041C250.65 1.64531 248.326 1.644 245.994 1.64268C241.735 1.64135 237.476 1.63737 233.217 1.64002C232.083 1.64069 230.975 1.62479 229.883 1.5685C229.344 1.54068 228.782 1.52877 228.232 1.50957C227.592 1.48705 226.967 1.48705 226.335 1.52612C226.05 1.544 225.687 1.54664 225.399 1.53273C223.891 1.45856 222.386 1.48308 220.859 1.50957C218.947 1.54202 217.027 1.59366 215.107 1.51817C214.95 1.51221 214.782 1.5036 214.632 1.50824C212.873 1.56254 211.11 1.49101 209.351 1.5122C208.876 1.51816 208.393 1.50758 207.91 1.50758C207.431 1.50758 206.945 1.50558 206.469 1.51618C203.187 1.59101 199.894 1.57115 196.608 1.54069C196.047 1.53539 195.496 1.53009 194.931 1.54003C193.169 1.57115 191.41 1.57843 189.658 1.50493C189.119 1.48241 188.543 1.47909 187.985 1.48108C187.514 1.48306 187.046 1.50625 186.608 1.51883C186.447 1.48969 186.458 1.46452 186.642 1.44863C186.93 1.42346 187.244 1.40889 187.521 1.38108C187.618 1.37115 187.656 1.33737 187.682 1.31353C187.69 1.30558 187.596 1.28837 187.532 1.28373C186.615 1.2195 185.65 1.21817 184.688 1.21817C181.234 1.21884 177.779 1.22281 174.325 1.22348C171.993 1.22348 169.662 1.23075 167.334 1.2142C165.901 1.20426 164.475 1.15593 163.045 1.12282C162.993 1.12149 162.918 1.09964 162.925 1.08838C162.929 1.07778 163.019 1.06123 163.083 1.05991C163.475 1.05064 163.872 1.04202 164.269 1.03937C165.231 1.03341 166.193 1.03209 167.154 1.02613C167.341 1.02481 167.428 0.998972 167.383 0.967847C167.364 0.955927 167.293 0.942685 167.229 0.937387C167.083 0.926129 166.926 0.913555 166.773 0.912893C164.606 0.90031 162.435 0.883093 160.268 0.880444C157.375 0.87647 154.482 0.883746 151.589 0.887719C150.71 0.889044 149.827 0.888389 149.052 0.961897C148.973 0.997658 149.041 1.01686 149.25 1.02083C149.651 1.02878 150.051 1.03275 150.452 1.03937C150.848 1.04666 151.08 1.07645 150.96 1.10029C150.863 1.1195 150.706 1.1301 150.571 1.14401C150.437 1.15792 150.291 1.16917 150.171 1.18639C150.13 1.19235 150.126 1.21354 150.152 1.22414C150.178 1.23606 150.253 1.25261 150.309 1.25327C150.706 1.25725 151.106 1.25394 151.499 1.26123C151.627 1.26388 151.769 1.28904 151.855 1.31023C151.96 1.33672 151.777 1.40293 151.586 1.41485C151.361 1.42876 151.137 1.45062 150.908 1.45393C150.268 1.4632 149.624 1.4685 148.985 1.46916C146.653 1.4738 144.325 1.47975 141.993 1.47776C140.953 1.47644 139.913 1.45857 138.876 1.44334C138.786 1.44202 138.64 1.40294 138.648 1.38307C138.655 1.36386 138.816 1.33737 138.936 1.33075C139.164 1.31883 139.411 1.31684 139.651 1.31419C141.5 1.29698 143.345 1.28771 145.19 1.3195C146.08 1.33473 146.952 1.33009 147.783 1.26519C147.828 1.26188 147.862 1.24135 147.854 1.23009C147.847 1.21949 147.783 1.20228 147.738 1.20162C147.502 1.19764 147.267 1.19565 147.031 1.19631C144.542 1.20294 142.05 1.21089 139.561 1.21685C139.325 1.21751 139.074 1.21088 138.85 1.19764C138.723 1.18969 138.584 1.16189 138.558 1.13937C138.535 1.1195 138.644 1.07712 138.73 1.07381C139.194 1.05527 139.669 1.04533 140.141 1.03208C140.343 1.02612 140.433 1.00494 140.373 0.973813C140.354 0.962555 140.257 0.947977 140.197 0.947977C138.678 0.95791 137.158 0.969169 135.639 0.982414C135.594 0.983076 135.553 1.00096 135.497 1.0142C135.826 1.0493 136.155 1.08308 136.473 1.12016C136.518 1.12546 136.537 1.146 136.526 1.15792C136.514 1.1705 136.466 1.18838 136.41 1.19169C136.185 1.20493 135.949 1.2195 135.717 1.22149C134.595 1.23142 133.472 1.23737 132.267 1.24598C132.622 1.30095 132.985 1.27645 133.311 1.28373C133.629 1.29102 133.955 1.28704 134.273 1.29565C134.988 1.31353 135.702 1.33407 136.41 1.35924C136.522 1.36321 136.601 1.39499 136.694 1.41353C136.574 1.43008 136.466 1.45725 136.339 1.46056C135.306 1.48705 134.265 1.50625 133.236 1.5334C132.869 1.54267 132.446 1.5334 132.117 1.60691C132.368 1.61685 132.577 1.63141 132.787 1.63207C135.118 1.6367 137.446 1.64201 139.778 1.64201C143.232 1.64201 146.687 1.64002 150.141 1.63339C152.229 1.62942 154.318 1.61486 156.406 1.60625C156.724 1.60492 157.05 1.60492 157.368 1.61352C158.97 1.65591 160.571 1.64598 162.181 1.63671C163.225 1.63075 164.269 1.64135 165.313 1.64069C165.631 1.64069 166.002 1.63208 166.144 1.57446C166.223 1.54201 166.125 1.49565 166.095 1.45592C166.047 1.39036 166.219 1.33606 166.507 1.3248C166.743 1.31553 166.975 1.2983 167.211 1.2983C169.299 1.30294 171.387 1.31022 173.475 1.31751C173.55 1.31751 173.651 1.32347 173.696 1.3334C173.786 1.35393 173.91 1.37976 173.902 1.40228C173.895 1.42545 173.775 1.45989 173.659 1.46651C173.446 1.47909 173.199 1.47843 172.967 1.47843C172.652 1.47843 172.293 1.45526 172.027 1.47447C171.368 1.52281 170.8 1.50558 170.186 1.45128C169.478 1.38903 168.771 1.41818 168.131 1.49168C168.026 1.5036 167.937 1.53937 167.959 1.5599C167.982 1.58241 168.142 1.61485 168.255 1.61684C169.374 1.63406 170.493 1.64466 171.615 1.65857C172.02 1.66387 172.495 1.66849 172.697 1.73406C173.169 1.88372 173.91 1.90293 174.752 1.89961C174.976 1.89895 175.201 1.91683 175.422 1.92875C175.44 1.93007 175.455 1.95391 175.425 1.96053C175.38 1.97047 175.294 1.9804 175.227 1.9804C173.461 1.98769 171.705 2.01418 169.931 2.00226C168.255 1.99101 166.552 1.96915 164.913 2.06981L164.931 2.07313C164.86 2.06717 164.789 2.05591 164.714 2.05525C162.806 2.03207 160.919 1.98504 158.992 1.98372C155.627 1.98173 152.267 2.0314 148.902 1.9877C148.094 1.9771 147.3 1.99564 146.541 2.04729C145.99 2.08504 145.452 2.08239 144.898 2.05193C142.978 1.94664 141.099 1.98636 139.269 2.11219C138.487 2.16583 137.701 2.17842 136.915 2.13869C135.886 2.08637 134.872 2.07246 133.835 2.12014C133.681 2.12743 133.506 2.1347 133.36 2.12874C131.821 2.06649 130.339 2.15523 128.831 2.17775C128.67 2.1804 128.509 2.19233 128.356 2.18902C127.24 2.16915 126.144 2.17842 125.062 2.23206C124.842 2.24331 124.684 2.2069 124.692 2.15392C124.696 2.14067 124.759 2.12742 124.763 2.11351C124.778 2.06252 124.591 2.03669 124.344 2.02676C123.94 2.01086 123.547 2.0208 123.195 2.06252C122.798 2.1102 122.435 2.16783 122.008 2.20425C121.739 2.22676 121.384 2.22412 121.069 2.22213C120.714 2.22014 120.534 2.17113 120.384 2.11882C120.208 2.05723 119.898 2.05458 119.565 2.06915L119.583 2.07313C118.356 1.97512 117.038 2.07842 115.792 2.02213C114.92 2.0473 114.037 2.06583 113.285 2.15854L113.307 2.15524C112.607 2.20955 111.945 2.21551 111.253 2.13869C109.898 1.98902 108.423 1.94796 106.863 2.01352C106.305 2.03736 105.755 2.0261 105.193 2.01683C104.561 2.0069 103.917 2.01286 103.281 2.01617C102.547 2.02014 101.877 2.05458 101.271 2.1367C100.758 2.20557 100.231 2.18967 99.763 2.10755C98.906 1.95788 97.8656 1.98306 96.8289 2.02081C96.698 2.02544 96.5219 2.05391 96.4995 2.0751C96.3797 2.19761 95.9307 2.2367 95.302 2.2367C94.3401 2.2367 93.3783 2.23802 92.4165 2.23471C92.2967 2.23405 92.177 2.2102 92.0572 2.19696C92.1733 2.18239 92.2743 2.16319 92.4015 2.15524C92.5475 2.14597 92.7196 2.14795 92.873 2.14132C92.9366 2.13867 93.0152 2.12742 93.0376 2.11683C93.0526 2.10954 92.9966 2.08902 92.9554 2.08769C92.0198 2.05458 91.0841 1.99828 90.1335 2.0751L90.1597 2.07048C89.8678 2.17312 89.4113 2.21351 88.79 2.17642C87.6598 2.10888 86.5257 2.04862 85.3131 2.06981L85.3281 2.07246C84.8865 2.03141 84.4187 2.01617 83.9284 2.03206C82.0197 2.09232 80.1074 2.08702 78.1762 2.0751C76.421 2.0645 74.647 2.08835 72.8918 2.11683C71.129 2.1453 69.3739 2.16384 67.6074 2.14066C67.2069 2.13536 66.8027 2.12875 66.4097 2.13471C64.6545 2.1612 62.8993 2.19167 61.1441 2.2208C60.9045 2.22478 60.6575 2.23868 60.4254 2.23206C57.8618 2.15855 55.3244 2.2943 52.757 2.25721C51.5669 2.24 50.3469 2.26054 49.1568 2.28636C46.436 2.3453 43.7077 2.30755 40.9831 2.31682C40.2646 2.31947 39.5423 2.31749 38.8237 2.32146C37.8619 2.32676 36.9001 2.34595 35.9382 2.33933C34.7257 2.33138 33.5355 2.34065 32.3529 2.38833C32.1321 2.39694 31.8776 2.38569 31.6456 2.37973C31.5782 2.37775 31.4772 2.36318 31.4734 2.35259C31.4622 2.32809 31.4547 2.29695 31.5295 2.27841C31.6156 2.25722 31.7803 2.24199 31.9263 2.23471C32.7758 2.19034 33.6441 2.1645 34.531 2.15987C35.4929 2.15523 36.4547 2.14663 37.4165 2.13935C37.9068 2.13538 38.3858 2.12014 38.7151 2.04795C39.1568 1.95061 39.7406 1.91816 40.4105 1.91551C41.8551 1.90888 43.296 1.90226 44.7406 1.89299C45.3694 1.88901 46.0206 1.91353 46.6343 1.85459C46.3013 1.79234 45.8821 1.81219 45.5079 1.81219C44.0632 1.81087 42.6186 1.81816 41.1777 1.81551C40.7885 1.81485 40.3919 1.7963 40.0139 1.77776C39.939 1.77378 39.8417 1.72213 39.8903 1.71021C40.0737 1.66584 40.2721 1.61155 40.5378 1.59301C40.9757 1.56255 41.4659 1.55458 41.9375 1.54399C42.1471 1.53935 42.2519 1.53208 42.2294 1.4897C39.9091 1.49764 37.5924 1.48506 35.2795 1.43804C34.3065 1.41817 33.3672 1.46851 32.4315 1.50824C31.698 1.54003 31.0018 1.53142 30.317 1.47712C30.1972 1.44467 30.0999 1.40823 29.9465 1.38241C29.8828 1.37181 29.692 1.38307 29.5647 1.38837C29.5385 1.3897 29.5198 1.41221 29.5422 1.42148C29.5647 1.43208 29.6321 1.44333 29.692 1.44664C29.9053 1.45724 30.1224 1.46453 30.3394 1.47314C30.2122 1.49036 30.0962 1.51685 29.954 1.52281C28.704 1.57115 27.4502 1.61882 26.1927 1.66054C24.8529 1.70491 23.5056 1.74134 22.162 1.78571C21.945 1.793 21.7504 1.82082 21.5371 1.84068C21.6643 1.86519 21.7616 1.88372 21.859 1.90293C22.091 1.94928 22.1059 1.99299 21.8926 2.00425C21.5894 2.02015 21.2713 2.03074 20.9682 2.04729C20.7324 2.06054 20.5602 2.1208 20.68 2.14795C20.7698 2.16848 20.9008 2.19232 21.0318 2.19696C21.2638 2.2049 21.5109 2.20292 21.7467 2.19828C22.323 2.18702 22.8731 2.19827 23.3634 2.25655C24.0482 2.33867 24.7968 2.38172 25.6238 2.38106C25.6762 2.38106 25.7848 2.40158 25.7736 2.40688C25.7212 2.43006 25.665 2.46515 25.564 2.47111C24.7294 2.52078 23.8948 2.57443 23.0378 2.6082C22.2444 2.63933 21.5034 2.68635 20.7736 2.7486C19.9053 2.82211 19.0258 2.8923 18.1238 2.95322C17.0947 3.02276 16.0767 3.02607 15.186 2.88501C14.6134 2.79428 13.9135 2.76251 13.18 2.76383C11.814 2.76648 10.448 2.77508 9.08571 2.78833C8.69275 2.7923 8.30724 2.81945 7.9255 2.84065C7.39032 2.86978 6.86645 2.90555 6.32753 2.93337C5.77738 2.96184 5.22344 2.96979 4.68826 2.91747C4.18303 2.86781 3.62161 2.85854 3.06024 2.85059C2.74587 2.84595 2.39782 2.84528 2.1321 2.82011C1.80276 2.78965 2.16207 2.71881 1.97495 2.66914C1.5745 2.56318 1.19648 2.45523 0.833461 2.3453C0.507863 2.24596 0.283356 2.14134 0.317039 2.02213C0.335751 1.95194 0.365702 1.87511 0.234714 1.81087C-0.236842 1.58372 0.126112 1.36055 0.2571 1.13672C0.339435 0.997651 0.833531 0.908911 1.55958 0.85527C2.16586 0.810239 2.79453 0.796339 3.44198 0.796339C4.72566 0.796339 6.0131 0.800972 7.29678 0.793687C9.70322 0.77978 12.1096 0.759916 14.4749 0.663892C15.171 0.635416 15.9083 0.631438 16.6268 0.62614C18.7152 0.611571 20.8036 0.602959 22.8881 0.589714C23.5281 0.585741 24.168 0.572503 24.808 0.563231C25.7698 0.549324 26.7279 0.534746 27.686 0.520176C28.4045 0.509581 29.1231 0.497661 29.8417 0.487728C30.3207 0.481105 30.8035 0.467198 31.2788 0.471172C31.9263 0.475807 32.5476 0.460578 33.1838 0.440049C34.2055 0.406937 35.2608 0.372508 36.2863 0.381117C38.6291 0.400984 40.927 0.343364 43.2436 0.308928C45.3207 0.277803 47.4128 0.270519 49.5011 0.259923C51.1066 0.251976 52.7159 0.255946 54.3215 0.255946C55.7661 0.255946 57.2106 0.255958 58.6515 0.218873C59.3626 0.20033 60.0924 0.206291 60.8147 0.202317C63.8648 0.185099 66.9187 0.173174 69.9651 0.14801C71.0093 0.1394 72.0273 0.192374 73.0864 0.159262C74.1081 0.127475 75.1598 0.120857 76.2002 0.114235C77.8843 0.103639 79.5722 0.10099 81.2601 0.0970162C82.787 0.0930428 84.3027 0.0692018 85.8259 0.0466858C87.6635 0.018872 89.516 0.0254879 91.3648 0.0235012C93.8536 0.0215145 96.3461 0.0261546 98.8349 0.0281413C98.9958 0.0281413 99.1568 0.0288029 99.3177 0.0274785C106.305 -0.0235135 113.292 0.00959363 120.279 0.0228383C121.806 0.0254872 123.33 0.0228428 124.856 0.0274785C126.301 0.0314519 127.749 0.0268104 129.183 0.0711801C129.654 0.0857492 130.152 0.0910568 130.624 0.0811233C132.551 0.040727 134.475 0.085087 136.398 0.0877359C137.925 0.0897226 139.452 0.0864263 140.976 0.0864263C141.619 0.0864263 142.263 0.0824393 142.903 0.0890617C145.152 0.114227 147.394 0.0956885 149.636 0.0605901C150.193 0.0519811 150.762 0.0387403 151.316 0.0480116C153 0.0771499 154.677 0.0705295 156.361 0.0500002C156.601 0.0473513 156.848 0.0407257 157.083 0.0466858C159.726 0.113571 162.371 0.0466891 165.017 0.0500002C165.339 0.0506625 165.665 0.0420515 165.979 0.0480116C170.137 0.13344 174.321 0.0976836 178.487 0.135431C178.966 0.139404 179.452 0.133434 179.931 0.124825C180.908 0.106282 181.844 0.151984 182.798 0.165891C183.741 0.179798 184.725 0.123503 185.661 0.144032C188.228 0.200322 190.796 0.179793 193.363 0.177807C194.969 0.176482 196.574 0.185099 198.176 0.185761C200.747 0.186424 203.318 0.179799 205.886 0.18311C209.74 0.188408 213.592 0.198995 217.446 0.207604C217.525 0.207604 217.611 0.205618 217.686 0.208267C219.759 0.279788 221.844 0.253969 223.928 0.23344C224.568 0.22748 225.212 0.228804 225.844 0.216222C226.492 0.203639 227.128 0.199659 227.761 0.226149C228.554 0.25926 229.347 0.264552 230.152 0.236738C230.309 0.231441 230.474 0.225489 230.631 0.2288C233.202 0.283765 235.751 0.202971 238.307 0.1937C239.83 0.188402 241.361 0.202304 242.88 0.222171C243.767 0.233429 244.628 0.240061 245.515 0.214896C247.031 0.172513 248.554 0.179135 250.077 0.214896C251.028 0.236749 251.997 0.243371 252.959 0.247345C255.047 0.256616 257.136 0.259265 259.22 0.264563C259.299 0.264563 259.381 0.264565 259.46 0.266552C261.144 0.318868 262.813 0.305622 264.475 0.232114C264.935 0.211585 265.429 0.210252 265.912 0.206941C267.199 0.198994 268.475 0.184425 269.729 0.123499C270.451 0.0884007 271.162 0.105623 271.817 0.177144C271.952 0.192375 272.102 0.203638 272.248 0.215559C274.433 0.394362 274.029 0.383093 274.774 0.734077C275.234 0.951951 275.01 1.15328 273.932 1.30824L273.958 1.3036C273.386 1.35062 272.817 1.39764 272.192 1.44863C272.252 1.48307 272.326 1.52147 272.379 1.56054C272.45 1.6122 272.341 1.64532 272.076 1.65061C271.758 1.65724 271.439 1.65922 271.091 1.66386C270.751 1.73869 271.417 1.77313 271.331 1.84002C271.264 1.89432 271.305 1.95259 271.286 2.00888C271.256 2.09695 271.136 2.12611 270.523 2.12213C269.883 2.1175 269.46 2.16583 269.097 2.24795L269.119 2.24066ZM190.938 1.30626C190.893 1.29831 190.859 1.28771 190.807 1.28241C190.77 1.27843 190.714 1.27976 190.665 1.27909C190.766 1.28704 190.863 1.29433 190.964 1.30228L190.938 1.30626ZM155.714 0.532771C156.05 0.532771 156.387 0.532771 156.728 0.532771C157.682 0.633431 158.708 0.615542 159.737 0.590377C159.8 0.589053 159.875 0.576479 159.909 0.565883C159.939 0.556612 159.928 0.53277 159.916 0.532108C159.385 0.513566 158.85 0.495682 158.318 0.479126C157.738 0.461246 157.222 0.497661 156.709 0.537395C156.384 0.493688 156.058 0.495012 155.736 0.537395C155.208 0.532097 154.714 0.475148 154.168 0.506935C154.101 0.510908 154.029 0.522176 154.003 0.533434C153.932 0.565221 154.007 0.58707 154.202 0.594354C154.752 0.613559 155.253 0.587074 155.714 0.532771ZM78.5393 1.39102C78.3521 1.3301 78.1575 1.26851 77.7233 1.25394C77.263 1.23871 76.7877 1.2248 76.3723 1.2758C76.2825 1.28639 76.2226 1.3281 76.2675 1.34532C76.4434 1.41419 76.8064 1.45194 77.2069 1.44598C77.6635 1.43869 78.1051 1.40824 78.5542 1.38771L78.5393 1.39102ZM86.7578 1.28373C86.7316 1.2685 86.7053 1.25328 86.6754 1.23871C84.5945 1.23871 82.5138 1.23805 80.4292 1.24003C80.2758 1.24003 80.0886 1.24797 79.9838 1.26519C79.8977 1.27976 79.8491 1.31619 79.8865 1.33672C79.9913 1.39367 80.2421 1.42876 80.5714 1.44465C81.0542 1.46849 81.522 1.46188 81.9786 1.4248C82.4127 1.39036 82.8356 1.35129 83.281 1.32215C83.3858 1.31553 83.6066 1.33274 83.6852 1.35128C83.7638 1.36916 83.7974 1.41288 83.7301 1.42679C83.528 1.46851 83.2922 1.5228 83.0265 1.53207C82.4053 1.55459 81.754 1.55988 81.1178 1.56054C78.9509 1.56187 76.7878 1.55724 74.6246 1.58837C73.3484 1.60625 72.0685 1.63075 70.7885 1.63737C68.704 1.64929 66.6155 1.65062 64.531 1.65327C63.9733 1.65393 63.4157 1.64267 62.8581 1.63472C62.7982 1.63406 62.7458 1.61948 62.6897 1.61154C62.7832 1.59233 62.8544 1.56387 62.9741 1.55592C63.5056 1.51883 64.0632 1.51884 64.632 1.52678C65.6724 1.54069 66.7129 1.54731 67.7533 1.55327C68.1575 1.55592 68.5916 1.5473 68.8761 1.49432C69.3663 1.40359 69.9651 1.38439 70.6238 1.38174C71.4995 1.37777 72.379 1.36785 73.2548 1.35857C73.2885 1.35791 73.3446 1.33407 73.3296 1.32347C73.3184 1.31222 73.2323 1.295 73.1837 1.295C71.507 1.30825 69.8304 1.31949 68.1575 1.28108C67.9255 1.27578 67.6784 1.28705 67.4389 1.28904C66.2376 1.29963 65.0363 1.31023 63.8387 1.3195C62.9592 1.32612 62.0609 1.3142 61.1964 1.34003C59.284 1.39698 57.3679 1.40096 55.4405 1.39169C55.1261 1.39036 54.793 1.3877 54.531 1.43075C54.7668 1.48439 55.1036 1.4632 55.403 1.46452C56.5258 1.46982 57.6485 1.47114 58.7675 1.47776C58.9958 1.47909 59.2429 1.49366 59.4412 1.51419C59.531 1.52346 59.5947 1.5738 59.5348 1.58837C59.2728 1.6526 58.9621 1.71022 58.5729 1.79035C59.8491 1.81353 60.9644 1.8036 62.0722 1.7738C63.3447 1.73936 64.6246 1.72809 65.9083 1.72875C67.1134 1.72941 68.3147 1.72744 69.5198 1.72081C72.7196 1.70426 75.9345 1.73008 79.1194 1.65128C79.4337 1.64333 79.7593 1.64664 80.0811 1.64531C81.9262 1.64001 83.7712 1.63604 85.6163 1.62942C85.8259 1.62876 86.0318 1.6122 86.3237 1.59962C86.0917 1.57644 85.9644 1.56121 85.8259 1.55062C85.6014 1.5334 85.3993 1.5122 85.3656 1.46452C85.3282 1.41485 85.5302 1.36188 85.8857 1.33605C86.1739 1.31685 86.4696 1.30161 86.7578 1.28373ZM194.127 1.3738C203.513 1.38705 212.416 1.3599 221.32 1.39036C221.881 1.39235 222.442 1.38439 223.004 1.37843C223.228 1.37578 223.449 1.36652 223.928 1.35327C223.502 1.32811 223.303 1.3195 223.124 1.30427C222.996 1.29367 222.895 1.27513 222.779 1.2599C222.899 1.24666 223.019 1.22281 223.139 1.22215C224.153 1.21884 225.231 1.16585 226.009 1.34664C226.121 1.37313 226.454 1.37843 226.683 1.37843C227.966 1.38042 229.25 1.37844 230.53 1.37447C230.646 1.37447 230.762 1.35261 230.889 1.34003C230.362 1.27712 229.789 1.32215 229.25 1.31023C228.73 1.29897 228.161 1.32944 227.603 1.24534C228.213 1.2162 228.737 1.18307 229.276 1.16718C229.905 1.14864 230.549 1.14599 231.185 1.13407C231.724 1.12413 232.308 1.16784 232.899 1.08374C232.495 1.07778 232.184 1.0705 231.874 1.06983C230.029 1.06718 228.183 1.06519 226.338 1.06453C221.844 1.06254 217.353 1.06123 212.858 1.05991C212.618 1.05991 212.379 1.06519 212.136 1.06586C211.907 1.06652 211.825 1.07845 211.907 1.10957C213.154 1.14865 214.415 1.16719 215.698 1.146C216.166 1.13805 216.653 1.15194 217.124 1.1632C217.21 1.16519 217.334 1.20626 217.319 1.22745C217.308 1.24997 217.166 1.28639 217.065 1.28837C216.432 1.30162 215.792 1.31353 215.156 1.31287C212.428 1.31154 209.695 1.29235 206.971 1.30626C203.999 1.32149 201.035 1.31884 198.064 1.30957C196.941 1.30626 195.818 1.31486 194.696 1.3195C194.632 1.32148 194.561 1.33341 194.127 1.3738ZM94.9538 1.53273C95.2982 1.5473 95.3768 1.55327 95.4516 1.55327C101.87 1.56717 108.288 1.52943 114.703 1.57446C114.864 1.57579 115.025 1.56916 115.182 1.56916C117.188 1.57247 119.19 1.57512 121.196 1.58041C121.915 1.5824 122.637 1.59168 123.356 1.59234C123.457 1.59234 123.558 1.55923 123.659 1.54135C123.547 1.5248 123.442 1.49566 123.318 1.49301C122.686 1.4791 122.05 1.47247 121.413 1.46121C121.369 1.46055 121.301 1.44333 121.297 1.43274C121.294 1.42148 121.335 1.4036 121.387 1.39962C121.675 1.37645 121.982 1.36055 122.252 1.33208C122.349 1.32214 122.42 1.28176 122.387 1.26123C122.353 1.23937 122.192 1.20957 122.072 1.20758C120.957 1.18772 119.842 1.16321 118.723 1.15924C116.155 1.14997 113.588 1.14731 111.021 1.14864C106.93 1.15062 102.836 1.15791 98.745 1.16519C98.352 1.16585 97.9553 1.18042 97.5736 1.1983C97.48 1.20228 97.3678 1.24466 97.3865 1.26519C97.4089 1.28704 97.5924 1.32413 97.6785 1.32149C98.3821 1.30228 99.1267 1.3387 99.7891 1.27182C100.448 1.20493 101.17 1.20494 101.896 1.21222C102.697 1.22083 103.505 1.24797 104.295 1.23605C106.223 1.20625 108.146 1.23539 110.066 1.22082C111.907 1.20758 113.745 1.26254 115.59 1.2195C116.05 1.2089 116.597 1.21552 117.005 1.24996C117.761 1.3142 118.506 1.32679 119.31 1.3109C119.381 1.30957 119.55 1.3493 119.55 1.37049C119.553 1.39367 119.449 1.42877 119.333 1.4387C119.123 1.45724 118.876 1.4685 118.644 1.46916C116.96 1.47645 115.276 1.48373 113.592 1.48373C107.978 1.48373 102.36 1.48108 96.7465 1.47975C96.2001 1.4824 95.635 1.46717 94.9538 1.53273ZM170.8 0.999633C171.047 1.05658 171.391 1.04335 171.69 1.04004C172.978 1.02679 174.254 1.03342 175.526 1.07447C176.077 1.09235 176.642 1.09964 177.199 1.1056C177.431 1.10825 177.675 1.09765 177.907 1.08904C177.97 1.08705 178.075 1.06984 178.068 1.06256C178.049 1.04004 177.996 1.00029 177.937 0.99897C175.62 0.9546 173.3 0.953945 170.975 0.972487C170.916 0.973812 170.86 0.991024 170.8 0.999633ZM182.862 0.97315C182.862 0.977786 182.858 0.981756 182.858 0.986391C182.229 0.986391 181.6 0.983744 180.972 0.98838C180.848 0.989042 180.725 1.01553 180.616 1.03274C180.485 1.05394 180.758 1.10691 181.035 1.11486C182.293 1.15128 183.539 1.13142 184.782 1.09698C184.838 1.09565 184.898 1.07977 184.924 1.06851C184.991 1.03606 184.924 1.00626 184.733 1.00295C184.112 0.989703 183.487 0.982421 182.862 0.97315ZM187.723 1.03341C188.416 1.05592 189.101 1.08705 189.8 1.0983C190.336 1.10691 190.886 1.09102 191.428 1.08374C191.466 1.08308 191.526 1.06454 191.526 1.05394C191.526 1.04268 191.481 1.02348 191.436 1.02083C190.208 0.952619 188.958 0.969171 187.723 1.03341ZM7.67478 2.37377C7.73466 2.38304 7.78704 2.39828 7.84692 2.3996C8.62536 2.41219 9.40006 2.42344 10.1785 2.43272C10.3319 2.4347 10.5003 2.4314 10.6388 2.4208C10.8447 2.40491 11.0355 2.38105 11.2189 2.35721C11.2601 2.35191 11.2639 2.3314 11.2452 2.3208C11.2264 2.31021 11.1629 2.2996 11.103 2.29364C11.0394 2.28768 10.9532 2.28305 10.8821 2.28438C9.8754 2.3049 8.86864 2.32609 7.86191 2.34861C7.80203 2.34993 7.74589 2.36317 7.67478 2.37377ZM223.868 0.668516C224.213 0.718184 224.628 0.690383 225.006 0.698992C225.32 0.706277 225.639 0.711561 225.957 0.718184C226.35 0.72613 226.746 0.738057 227.139 0.741368C227.282 0.742693 227.435 0.726142 227.573 0.71356C227.622 0.708924 227.66 0.691044 227.656 0.680448C227.652 0.66919 227.596 0.651296 227.547 0.649972C226.526 0.609575 225.489 0.647987 224.46 0.636067C224.254 0.633418 224.011 0.625471 223.868 0.668516ZM126.803 1.63074C127.083 1.62346 127.259 1.62677 127.387 1.61352C127.503 1.6016 127.577 1.57379 127.641 1.55062C127.663 1.54134 127.618 1.52147 127.57 1.5122C127.132 1.42346 126.387 1.42811 125.938 1.5248C125.882 1.53672 125.949 1.58771 126.021 1.59301C126.305 1.61287 126.616 1.62213 126.803 1.63074ZM52.6485 1.77908C55.4329 1.8261 55.4329 1.8261 56.2226 1.74929C55.1223 1.74929 54.0894 1.74796 53.0565 1.75061C52.9217 1.75127 52.7832 1.76915 52.6485 1.77908ZM190.736 1.86982C188.449 1.81882 188.449 1.81882 187.585 1.88637C188.723 1.91286 189.726 1.88637 190.736 1.86982ZM125.998 1.24863C127.742 1.31552 127.742 1.31552 129.142 1.25062C128.034 1.20559 127.027 1.22943 125.998 1.24863ZM144.681 1.04996C145.081 1.03804 145.467 1.02746 145.852 1.01355C145.904 1.01157 145.964 0.992361 145.968 0.979779C145.972 0.967859 145.912 0.944678 145.878 0.944678C145.171 0.943354 144.467 0.944681 143.76 0.94733C143.696 0.94733 143.618 0.959903 143.58 0.970498C143.55 0.97977 143.554 1.00494 143.565 1.0056C143.936 1.02149 144.31 1.03539 144.681 1.04996ZM194.201 1.08705C194.628 1.10295 194.849 1.11751 195.07 1.11818C195.691 1.12082 196.309 1.11751 196.93 1.11486C196.986 1.11486 197.038 1.1003 197.091 1.09236C197.038 1.08308 196.986 1.06652 196.93 1.06586C196.312 1.06122 195.691 1.05659 195.07 1.05725C194.849 1.05792 194.628 1.07182 194.201 1.08705ZM205.919 1.07447C206.009 1.09765 206.039 1.11486 206.091 1.11619C206.619 1.13672 207.147 1.15725 207.682 1.17049C207.798 1.17314 207.933 1.14665 208.06 1.13341C207.974 1.11354 207.895 1.07779 207.802 1.07713C207.196 1.07183 206.582 1.07447 205.919 1.07447ZM186.365 0.648662C186.728 0.652635 186.885 0.659247 187.027 0.653949C187.154 0.649313 187.267 0.631432 187.386 0.619511C187.278 0.602956 187.173 0.575145 187.053 0.573158C186.686 0.566536 186.316 0.569183 185.945 0.57117C185.901 0.57117 185.833 0.589709 185.83 0.600967C185.822 0.611563 185.871 0.631429 185.916 0.633416C186.129 0.643349 186.353 0.648 186.365 0.648662ZM94.3439 1.23871C93.8012 1.23871 93.2586 1.23805 92.7122 1.24003C92.6785 1.24003 92.6447 1.25658 92.5998 1.26917C93.2136 1.30228 93.8124 1.29566 94.3439 1.23871ZM49.8305 1.78173C49.7369 1.76319 49.6471 1.72941 49.5498 1.72875C49.4338 1.72809 49.2503 1.75062 49.2054 1.77114C49.1642 1.78969 49.2279 1.82876 49.3214 1.84068C49.5086 1.8632 49.8005 1.8261 49.8305 1.78173ZM167.731 0.532108C167.66 0.534757 167.431 0.541366 167.207 0.551299C167.02 0.559908 166.949 0.58376 167.016 0.612899C167.038 0.622832 167.143 0.635403 167.196 0.634079C167.495 0.624807 167.794 0.612901 168.086 0.598994C168.142 0.596346 168.21 0.579114 168.206 0.568518C168.206 0.538718 168.082 0.525486 167.731 0.532108ZM215.197 1.89497C215.219 1.93405 215.47 1.95193 215.728 1.9314C215.897 1.91816 215.968 1.89101 215.856 1.86915C215.77 1.8526 215.586 1.842 215.467 1.84597C215.362 1.84994 215.283 1.87776 215.197 1.89497ZM163.91 0.518188C163.898 0.550637 163.988 0.571834 164.179 0.573821C164.247 0.574483 164.34 0.566537 164.385 0.557265C164.512 0.530114 164.482 0.499652 164.295 0.492368C164.183 0.487732 164.041 0.508916 163.91 0.518188ZM77.9517 1.83206C77.772 1.83206 77.555 1.83074 77.3342 1.83273C77.2668 1.83339 77.1695 1.83736 77.1396 1.84597C77.0647 1.86716 77.1507 1.8824 77.3528 1.88438C77.5699 1.88637 77.7907 1.88703 78.0115 1.88438C78.0639 1.88372 78.1126 1.86848 78.165 1.85987C78.1089 1.85259 78.049 1.84531 77.9517 1.83206ZM200.583 1.11685C200.695 1.11685 200.773 1.11884 200.844 1.11619C200.912 1.11354 201.017 1.10758 201.028 1.09963C201.062 1.0738 200.957 1.06188 200.758 1.06387C200.683 1.06453 200.609 1.06123 200.534 1.06322C200.392 1.06786 200.253 1.07513 200.115 1.08175C200.19 1.13407 200.448 1.10824 200.583 1.11685ZM47.2968 1.54399C47.4278 1.53604 47.6186 1.53406 47.671 1.51817C47.7347 1.4983 47.585 1.48307 47.3941 1.48506C47.2481 1.48638 47.1021 1.48638 46.9562 1.48572C46.7615 1.48439 46.6568 1.49565 46.6792 1.52082C46.6867 1.5281 46.7952 1.53539 46.8588 1.53737C47.0048 1.54201 47.1508 1.542 47.2968 1.54399ZM141.717 1.81418C141.896 1.8122 141.975 1.81153 142.053 1.81021C142.255 1.80623 142.349 1.78968 142.293 1.76253C142.274 1.75326 142.173 1.74729 142.106 1.74398C142.035 1.74001 141.949 1.73804 141.877 1.74068C141.66 1.74996 141.451 1.76188 141.234 1.77313C141.417 1.78903 141.608 1.80491 141.717 1.81418ZM181.294 0.607596C181.282 0.639383 181.368 0.659917 181.552 0.662566C181.615 0.663229 181.709 0.654619 181.75 0.645348C181.874 0.618858 181.848 0.58906 181.668 0.581776C181.559 0.57714 181.421 0.598324 181.294 0.607596ZM129.654 1.62148C129.722 1.61684 129.827 1.61486 129.857 1.60625C129.943 1.5791 129.864 1.55923 129.658 1.55327C129.437 1.54664 129.175 1.53671 129.239 1.60028C129.25 1.61088 129.509 1.61419 129.654 1.62148ZM257.701 0.681111C257.76 0.681111 257.835 0.682435 257.903 0.680448C257.97 0.678461 258.034 0.673152 258.097 0.669179C257.993 0.661232 257.891 0.647336 257.787 0.647336C257.686 0.647336 257.588 0.661895 257.487 0.669842C257.558 0.673815 257.626 0.677137 257.701 0.681111ZM107.574 1.33738C107.424 1.33142 107.274 1.32281 107.125 1.32082C107.061 1.32016 106.994 1.33275 106.926 1.34003C106.967 1.3493 107.001 1.36585 107.046 1.36718C107.199 1.37049 107.36 1.36982 107.514 1.36718C107.536 1.36651 107.551 1.34797 107.574 1.33738ZM191.275 0.65196C191.342 0.646662 191.443 0.644013 191.466 0.634741C191.544 0.606265 191.473 0.584423 191.279 0.579787C191.219 0.578463 191.11 0.586409 191.088 0.59568C191.009 0.624156 191.084 0.644013 191.275 0.65196ZM165.216 1.79101C165.283 1.793 165.403 1.78769 165.422 1.78041C165.489 1.75127 165.392 1.73471 165.178 1.74266C165.044 1.74729 164.92 1.76187 164.793 1.77181C164.935 1.77843 165.074 1.78704 165.216 1.79101ZM74.1605 1.87048C74.4225 1.86849 74.4562 1.85722 74.2504 1.84199C74.1942 1.83802 74.1081 1.8473 74.0332 1.84995C74.0744 1.85723 74.1156 1.86386 74.1605 1.87048ZM234.987 1.10825C234.965 1.12017 234.913 1.13474 234.931 1.14401C234.954 1.15461 235.051 1.16718 235.107 1.16652C235.328 1.16254 235.365 1.14135 235.204 1.11354C235.163 1.10625 235.062 1.10957 234.987 1.10825ZM209.744 0.639382C209.688 0.610243 209.568 0.599655 209.407 0.614225C209.359 0.618198 209.31 0.63674 209.321 0.646673C209.359 0.675812 209.49 0.685737 209.654 0.67183C209.699 0.667195 209.714 0.649977 209.744 0.639382ZM177.989 0.634741C178.053 0.641364 178.12 0.653948 178.18 0.652623C178.247 0.651299 178.348 0.638725 178.356 0.628792C178.393 0.58972 178.281 0.57714 178.083 0.598332C178.03 0.604292 178.019 0.622821 177.989 0.634741ZM161.956 0.628792C161.937 0.616209 161.937 0.597002 161.892 0.593029C161.836 0.587731 161.72 0.590384 161.675 0.597669C161.507 0.626145 161.548 0.647987 161.773 0.65196C161.829 0.652622 161.896 0.636739 161.956 0.628792ZM183.977 1.84796L183.88 1.87247H184.067L183.977 1.84796ZM158.251 1.77577C158.3 1.78305 158.348 1.79498 158.401 1.79498C158.449 1.79498 158.502 1.78305 158.55 1.77577C158.502 1.76915 158.453 1.75658 158.404 1.75658C158.352 1.75658 158.303 1.76915 158.251 1.77577ZM154.112 1.79564L154.217 1.82148L154.299 1.79299L154.112 1.79564Z" fill="white"/>
<path d="M240.515 2.30492C240.751 2.30227 240.99 2.29962 241.226 2.29763C241.428 2.29631 241.537 2.31352 241.518 2.3473C241.511 2.35856 241.436 2.3771 241.384 2.37776C240.837 2.38438 240.291 2.38901 239.748 2.39233C239.692 2.39233 239.58 2.37181 239.583 2.36982C239.647 2.34929 239.711 2.31882 239.812 2.31419C240.036 2.30359 240.279 2.30558 240.515 2.30293C240.515 2.30293 240.515 2.30426 240.515 2.30492Z" fill="white"/>
<path d="M36.1403 1.70626C35.3432 1.74467 34.5872 1.74864 33.8237 1.72082C33.7676 1.71884 33.6927 1.69963 33.7002 1.6897C33.7039 1.6791 33.7937 1.66121 33.8499 1.66121C34.5422 1.65989 35.2384 1.66121 35.9307 1.66386C35.9794 1.6632 36.028 1.68242 36.1403 1.70626Z" fill="white"/>
<path d="M160.279 1.40626C159.98 1.39037 159.621 1.37182 159.265 1.34996C159.224 1.34731 159.19 1.32678 159.198 1.31553C159.205 1.30427 159.273 1.28573 159.31 1.28573C159.681 1.29103 160.055 1.29567 160.422 1.30759C160.74 1.31818 160.961 1.37248 160.766 1.38374C160.631 1.39169 160.489 1.39633 160.279 1.40626Z" fill="white"/>
<path d="M257.764 2.23273C257.925 2.23869 258.157 2.24596 258.382 2.25788C258.431 2.26053 258.494 2.27974 258.483 2.28901C258.472 2.30026 258.389 2.31551 258.333 2.31683C258.023 2.32345 257.712 2.33007 257.401 2.32742C257.293 2.3261 257.188 2.29829 257.083 2.28306C257.21 2.26915 257.33 2.25325 257.461 2.24133C257.525 2.23471 257.615 2.23604 257.764 2.23273Z" fill="white"/>
<path d="M235.025 2.29033C235.1 2.29364 235.193 2.29233 235.249 2.30028C235.365 2.31617 235.459 2.33669 235.56 2.35523C235.448 2.36914 235.339 2.38504 235.216 2.39563C235.152 2.40093 235.062 2.39696 234.984 2.39497C234.639 2.38769 234.426 2.34332 234.613 2.32015C234.733 2.30491 234.89 2.2996 235.025 2.29033Z" fill="white"/>
<path d="M84.808 2.15789C84.2503 2.22278 83.6403 2.24332 82.9592 2.22941C83.1426 2.16849 83.1426 2.16848 84.823 2.16054C84.8267 2.1612 84.808 2.15789 84.808 2.15789Z" fill="white"/>
<path d="M178.266 1.43075C178.374 1.40493 178.547 1.37977 178.722 1.3705C178.876 1.36255 178.996 1.39169 178.943 1.42149C178.872 1.46189 178.606 1.4844 178.412 1.47049C178.356 1.46652 178.236 1.43804 178.266 1.43075Z" fill="white"/>
<path d="M160.107 1.12414C159.695 1.12547 159.46 1.10029 159.598 1.08506C159.77 1.06586 159.999 1.06255 160.205 1.05527C160.272 1.05262 160.354 1.0566 160.425 1.06123C160.493 1.06521 160.594 1.07181 160.605 1.08042C160.639 1.10757 160.53 1.12149 160.336 1.12083C160.257 1.12149 160.182 1.12348 160.107 1.12414Z" fill="white"/>
<path d="M162.712 1.42481C162.529 1.4321 162.379 1.41951 162.394 1.38839C162.401 1.36786 162.517 1.34136 162.626 1.33209C162.787 1.31752 162.955 1.3354 162.94 1.36653C162.933 1.38639 162.791 1.40494 162.712 1.42481Z" fill="white"/>
<path d="M269.089 2.24663C269.325 2.25259 269.572 2.2526 269.785 2.26783C269.886 2.27511 269.935 2.31154 269.972 2.3367C269.984 2.34399 269.879 2.36517 269.823 2.36517C269.673 2.3665 269.448 2.36981 269.388 2.35458C269.258 2.32213 269.205 2.27907 269.123 2.24066C269.119 2.24066 269.089 2.24663 269.089 2.24663Z" fill="white"/>
<path d="M252.903 2.2963C252.929 2.2857 252.963 2.26584 252.981 2.26584C253.12 2.26782 253.258 2.27444 253.393 2.27908C253.363 2.28968 253.333 2.30888 253.307 2.30821C253.176 2.30755 253.041 2.30093 252.903 2.2963Z" fill="white"/>
<path d="M246.514 2.31617C246.402 2.30623 246.29 2.2963 246.178 2.28703C246.23 2.27975 246.279 2.26849 246.338 2.26517C246.402 2.26186 246.484 2.26253 246.544 2.26716C246.6 2.2718 246.634 2.28437 246.675 2.29298C246.623 2.30093 246.571 2.30822 246.514 2.31617Z" fill="white"/>
<path d="M260.616 2.2751L260.796 2.28637L260.65 2.30293L260.616 2.2751Z" fill="white"/>
<path d="M182.139 1.51751L181.956 1.52744L181.979 1.50096L182.139 1.51751Z" fill="white"/>
<path d="M248.659 2.29961L248.483 2.28901L248.625 2.27311L248.659 2.29961Z" fill="white"/>
<path d="M174.939 1.76121C174.931 1.77114 174.946 1.78506 174.916 1.79036C174.879 1.79632 174.786 1.79962 174.744 1.79565C174.576 1.77975 174.587 1.76188 174.77 1.75128C174.815 1.74863 174.883 1.7579 174.939 1.76121Z" fill="white"/>
<path d="M156.574 1.09236L156.387 1.10361L156.41 1.07448L156.574 1.09236Z" fill="white"/>
<path d="M154.624 1.09435L154.464 1.10229L154.486 1.07912L154.624 1.09435Z" fill="white"/>
<path d="M153.962 1.42613L154.127 1.41751L154.104 1.44202L153.962 1.42613Z" fill="white"/>
<path d="M113.27 2.15987C113.27 2.15987 113.292 2.15589 113.292 2.15655C113.292 2.15722 113.27 2.15987 113.27 2.15987Z" fill="white"/>
<path d="M85.3019 2.07048C85.1372 2.09962 84.9726 2.12875 84.808 2.15789L84.823 2.16054C84.9876 2.1314 85.1522 2.10227 85.3132 2.07313C85.3169 2.0738 85.3019 2.07048 85.3019 2.07048Z" fill="white"/>
<path d="M67.7047 1.45129L67.6074 1.42547L67.802 1.42613L67.7047 1.45129Z" fill="white"/>
<path d="M220.478 1.2599C220.526 1.25262 220.575 1.24003 220.624 1.24069C220.672 1.24069 220.717 1.25328 220.766 1.26056C220.717 1.26785 220.669 1.28042 220.62 1.27976C220.571 1.27976 220.523 1.26719 220.478 1.2599Z" fill="white"/>
</svg>
